<?xml version="1.0" encoding="UTF-8"?>
<svg version="1.1" xmlns="http://www.w3.org/2000/svg" width="1024" height="1536">
<path d="M0 0 C337.92 0 675.84 0 1024 0 C1024 506.88 1024 1013.76 1024 1536 C686.08 1536 348.16 1536 0 1536 C0 1029.12 0 522.24 0 0 Z " fill="#FEFEFE" transform="translate(0,0)"/>
<path d="M0 0 C0.84070038 -0.00705963 1.68140076 -0.01411926 2.5475769 -0.02139282 C37.67103667 -0.2494383 37.67103667 -0.2494383 52.890625 3.203125 C53.81391602 3.40711914 54.73720703 3.61111328 55.68847656 3.82128906 C77.82901703 8.83961678 97.37858623 16.41657348 114.890625 31.203125 C115.47714844 31.6671875 116.06367187 32.13125 116.66796875 32.609375 C120.28637626 35.48200386 123.1172906 38.53253535 125.890625 42.203125 C125.890625 42.863125 125.890625 43.523125 125.890625 44.203125 C127.128125 44.285625 128.365625 44.368125 129.640625 44.453125 C147.68685073 46.5147439 161.62653602 56.65471295 174.890625 68.203125 C175.66277344 68.85925781 176.43492187 69.51539063 177.23046875 70.19140625 C186.85538064 79.04306941 194.40667021 91.14843997 200.828125 102.453125 C201.15675537 103.02869141 201.48538574 103.60425781 201.82397461 104.19726562 C204.17568501 108.49658804 206.10708869 112.96085095 208.02172852 117.46777344 C208.29843636 118.1164035 208.5751442 118.76503357 208.86023712 119.43331909 C209.53812606 121.0227887 210.21452584 122.61289327 210.890625 124.203125 C211.84777657 124.20459021 211.84777657 124.20459021 212.82426453 124.20608503 C250.64399681 124.26435805 288.46366919 124.3381556 326.28333026 124.43211128 C330.82446599 124.44337943 335.36560203 124.45451789 339.90673828 124.46557617 C340.81079607 124.46777986 341.71485387 124.46998354 342.64630735 124.472254 C357.28434304 124.50762561 371.92237868 124.53249052 386.56044126 124.55347202 C401.58063892 124.57523515 416.60078113 124.60829046 431.62093163 124.65182656 C440.88903606 124.67833443 450.15707139 124.69603617 459.42521185 124.70247104 C465.78087265 124.70772756 472.13644651 124.72395343 478.49206072 124.74879066 C482.15882667 124.7627966 485.825437 124.77197987 489.49223137 124.76813316 C493.47011651 124.76408669 497.44770244 124.78314617 501.42553711 124.80439758 C502.58119171 124.79955001 503.73684631 124.79470243 504.92752075 124.78970796 C513.400198 124.86449088 520.63061069 125.94311069 526.890625 132.203125 C531.13885584 138.14824124 533.01455092 142.49872573 533.02205276 149.90339851 C533.0241054 150.59133177 533.02615803 151.27926502 533.02827287 151.98804474 C533.03396051 154.31025435 533.03248345 156.63240498 533.03106689 158.95462036 C533.03364953 160.62958974 533.0366624 162.3045585 533.0400703 163.9795264 C533.04815568 168.59581645 533.04993072 173.21209097 533.05066776 177.82838726 C533.05251568 182.80197252 533.06006175 187.77554966 533.06680298 192.74913025 C533.08039834 203.63144014 533.08641306 214.51374636 533.09081364 225.39606333 C533.09357436 232.18917195 533.09781143 238.98227915 533.10231781 245.77538681 C533.11451268 264.57753726 533.12481115 283.37968657 533.1281929 302.1818409 C533.12841247 303.38578925 533.12863203 304.58973761 533.12885825 305.83016925 C533.12907653 307.03702965 533.12929481 308.24389005 533.1295197 309.48732197 C533.12996317 311.93295423 533.13040973 314.37858649 533.13085938 316.82421875 C533.1310808 318.03734166 533.13130223 319.25046458 533.13153037 320.50034879 C533.13547804 340.1555688 533.15293013 359.81075173 533.1762189 379.46595742 C533.19992733 399.63794869 533.21239454 419.80992136 533.21356082 439.9819268 C533.21447793 451.31080829 533.22023928 462.63964148 533.23838043 473.96850967 C533.25377463 483.61610995 533.25890594 493.263647 533.25064233 502.91125722 C533.24673326 507.8338384 533.24767798 512.75629226 533.26169968 517.6788578 C533.27442321 522.18691379 533.27325465 526.69474656 533.26110896 531.20280217 C533.25914927 532.83206989 533.26224298 534.46135334 533.27095333 536.09059896 C533.32436791 546.75867723 533.3219135 556.48997414 525.703125 564.69921875 C520.23134212 569.23938343 513.17174664 571.30630005 506.15765381 571.36134338 C505.2097699 571.3711322 504.26188599 571.38092102 503.28527832 571.39100647 C502.25237671 571.39676193 501.2194751 571.4025174 500.15527344 571.40844727 C499.06228943 571.41834686 497.96930542 571.42824646 496.84320068 571.43844604 C493.22882253 571.47004524 489.61443122 571.49481236 486 571.51953125 C483.49464577 571.54010213 480.98929499 571.56109864 478.48394775 571.58250427 C472.56255523 571.63206766 466.64113973 571.67733662 460.71969819 571.72052664 C453.31570019 571.77479321 445.91175957 571.83572456 438.5078125 571.89648438 C425.30212238 572.00404892 412.09639349 572.10568297 398.890625 572.203125 C385.73674709 596.92857334 385.73674709 596.92857334 372.83807373 621.7875061 C371.12413024 625.13981527 369.40117653 628.48749878 367.6796875 631.8359375 C367.34925446 632.47902359 367.01882141 633.12210968 366.67837524 633.78468323 C363.89260613 639.20470145 361.09404264 644.61773326 358.265625 650.015625 C357.68687622 651.12151978 357.68687622 651.12151978 357.09643555 652.24975586 C354.26137493 657.61694596 351.20631144 662.81431404 347.97265625 667.953125 C346.53062193 670.28334597 346.53062193 670.28334597 347.890625 673.203125 C349.71660113 674.74956697 349.71660113 674.74956697 351.953125 676.265625 C364.98672568 686.20090539 372.01263494 701.33364462 374.890625 717.203125 C375.09429688 718.30527344 375.29796875 719.40742187 375.5078125 720.54296875 C380.55883757 752.40594199 373.01337866 780.36241777 360.515625 809.453125 C360.23697601 810.10354767 359.95832703 810.75397034 359.67123413 811.42410278 C356.68033005 818.36560508 353.53301872 825.03362245 349.56738281 831.48535156 C346.01733046 837.30139478 344.26391365 841.11710415 345.66821289 847.97338867 C346.40506822 850.72357245 347.31872774 853.38957522 348.2532196 856.07756042 C350.50340089 863.58127103 350.06398231 871.82780329 350.09375 879.578125 C350.09945007 880.74263184 350.10515015 881.90713867 350.11102295 883.10693359 C350.12042525 885.55760807 350.12698783 888.00829492 350.13085938 890.45898438 C350.14059502 894.19163038 350.17167672 897.92373216 350.203125 901.65625 C350.20965347 904.04687176 350.21490455 906.43749742 350.21875 908.828125 C350.2310968 909.93462402 350.2434436 911.04112305 350.25616455 912.18115234 C350.25316345 913.23254395 350.25016235 914.28393555 350.24707031 915.3671875 C350.25071594 916.27936035 350.25436157 917.1915332 350.25811768 918.13134766 C349.91883762 920.96730294 349.28882254 923.20837442 348.36765671 925.89511108 C348.09253525 926.70270559 347.8174138 927.5103001 347.53395534 928.34236717 C347.32165632 928.95641726 347.10935731 929.57046734 346.890625 930.203125 C295.91603166 930.22035204 244.94143812 930.23625703 193.96684265 930.24546814 C192.82380898 930.24567523 192.82380898 930.24567523 191.65768372 930.24588649 C175.07200763 930.24888375 158.48633151 930.2516533 141.90065535 930.25419033 C133.75969796 930.25543699 125.61874058 930.25673363 117.4777832 930.25805664 C116.26300167 930.25825278 116.26300167 930.25825278 115.02367909 930.25845288 C89.06848336 930.26266681 63.11328989 930.27014107 37.15809551 930.27942222 C10.34551429 930.28899188 -16.46706568 930.29504135 -43.27964858 930.29703999 C-47.12118898 930.29732788 -50.96272939 930.29765351 -54.80426979 930.29800224 C-55.55988036 930.29806967 -56.31549094 930.29813709 -57.0939988 930.29820656 C-68.2329372 930.29928967 -79.37187198 930.30323747 -90.51080894 930.30885506 C-106.70972783 930.31689026 -122.90864218 930.32017312 -139.10756292 930.31702935 C-141.14543386 930.31665217 -143.18330481 930.31637838 -145.22117577 930.31610997 C-176.58603007 930.3110718 -207.94835599 930.21556377 -239.31192017 929.93869019 C-240.35387785 929.92953913 -240.35387785 929.92953913 -241.41688519 929.92020321 C-255.41808192 929.79693548 -269.41913496 929.66312004 -283.42001083 929.50715718 C-288.18819534 929.45456882 -292.95641197 929.4053992 -297.72463702 929.35664316 C-300.99356016 929.32155003 -304.2623804 929.28078812 -307.53123391 929.23978555 C-309.47186339 929.21951894 -311.41249572 929.19952177 -313.35313129 929.17984676 C-314.23626186 929.16705425 -315.11939242 929.15426174 -316.02928452 929.14108158 C-318.05601046 929.12348341 -320.0830894 929.15736016 -322.109375 929.203125 C-322.439375 929.533125 -322.769375 929.863125 -323.109375 930.203125 C-326.484375 930.578125 -326.484375 930.578125 -330.109375 930.203125 C-332.52387935 927.94439513 -333.05567686 926.15951604 -333.23950195 922.88549805 C-333.19715013 916.17119947 -332.87498782 909.52177342 -332.359375 902.828125 C-332.27139648 901.64847168 -332.18341797 900.46881836 -332.09277344 899.25341797 C-331.88642905 896.49432787 -331.67839382 893.7354006 -331.46875 890.9765625 C-331.14141858 886.65215069 -330.82590766 882.32692736 -330.51174927 878.00154114 C-315.24185258 668.03016033 -315.24185258 668.03016033 -264.92578125 587.46875 C-249.58168166 575.12536892 -232.14172085 565.90300031 -214.421875 557.453125 C-213.7213501 557.11772705 -213.0208252 556.7823291 -212.29907227 556.43676758 C-209.3860976 555.08505695 -207.36039632 554.203125 -204.109375 554.203125 C-204.810625 553.378125 -205.511875 552.553125 -206.234375 551.703125 C-213.3604502 543.11251153 -218.66301539 534.42922715 -223.109375 524.203125 C-223.59148437 523.1203125 -224.07359375 522.0375 -224.5703125 520.921875 C-229.01498223 509.82366938 -230.40781737 497.97016195 -232.109375 486.203125 C-232.285896 485.11837891 -232.46241699 484.03363281 -232.64428711 482.91601562 C-233.17165785 478.70590839 -233.30751569 474.59363874 -233.34765625 470.35546875 C-233.35731415 469.49150482 -233.36697205 468.62754089 -233.37692261 467.73739624 C-233.40203503 464.87176181 -233.41440762 462.00635851 -233.421875 459.140625 C-233.42630112 457.64624405 -233.42630112 457.64624405 -233.43081665 456.12167358 C-233.44786018 430.38365343 -231.32715442 404.82821743 -229.109375 379.203125 C-228.9585584 377.43947561 -228.80798883 375.67580508 -228.65771484 373.91210938 C-228.1486675 367.94885634 -227.63834761 361.98576417 -227.10742188 356.02441406 C-226.45308204 348.62761439 -225.91135502 341.2354797 -225.49731445 333.82128906 C-215.57570988 157.8185497 -215.57570988 157.8185497 -168.109375 94.203125 C-167.14337463 92.86281201 -166.17858691 91.52162443 -165.21484375 90.1796875 C-159.02908868 81.65740268 -152.44750734 73.76532245 -145.109375 66.203125 C-144.54347656 65.61144531 -143.97757813 65.01976562 -143.39453125 64.41015625 C-125.4966295 45.74245228 -105.53307616 32.14202283 -82.109375 21.203125 C-81.4788623 20.9045459 -80.84834961 20.6059668 -80.19873047 20.29833984 C-55.43371038 8.65503678 -27.5090747 0.15447189 0 0 Z " fill="#35312C" transform="translate(425.109375,268.796875)"/>
<path d="M0 0 C-0.64556598 7.45549985 -2.1441662 14.53877649 -3.875 21.8125 C-4.13152344 22.91142578 -4.38804687 24.01035156 -4.65234375 25.14257812 C-6.15948579 31.56875915 -7.74088553 37.97059038 -9.41088867 44.35644531 C-10.5532703 49.48272311 -11.29061554 53.92463833 -8.4453125 58.5 C-5.40685474 61.60641049 -2.33375756 63.22422811 1.5625 65.0625 C2.26761719 65.40539062 2.97273437 65.74828125 3.69921875 66.1015625 C9.32879403 68.79352304 15.05761895 71.08635186 21 73 C19.38389822 76.92348408 16.68683235 79.71410703 13.8125 82.75 C12.81827952 83.81572486 11.82479055 84.88213262 10.83203125 85.94921875 C10.1062085 86.72724854 10.1062085 86.72724854 9.36572266 87.52099609 C6.99564537 90.08766185 4.71550866 92.73072118 2.4375 95.37890625 C1 97 1 97 -0.64453125 98.484375 C-2.7161881 100.80080974 -2.71085131 103.12617035 -2.5859375 106.12890625 C-1.1985658 112.92702756 2.66822448 118.98720541 6 125 C6.46631836 125.85432617 6.93263672 126.70865234 7.41308594 127.58886719 C19.81880825 150.27151922 33.82100138 171.86061406 48.125 193.375 C48.71378937 194.26224762 49.30257874 195.14949524 49.90921021 196.06362915 C60.78914584 212.43968699 72.19099499 228.38239665 84.0390625 244.0703125 C86.02592858 246.70156758 87.99903884 249.34226637 89.9609375 251.9921875 C95.54273808 259.51771628 101.26823501 266.88903814 107.21020508 274.1340332 C110.74196734 278.44040219 114.20537198 282.79171135 117.625 287.1875 C123.88493904 295.21112062 130.48680769 302.9316212 137.13671875 310.6328125 C137.6471875 311.22763428 138.15765625 311.82245605 138.68359375 312.43530273 C139.66758072 313.5817434 140.65571113 314.72464396 141.6484375 315.86352539 C145 319.77470546 145 319.77470546 145 322 C145.99 322.33 146.98 322.66 148 323 C148 343.79 148 364.58 148 386 C121.55471965 386.15625452 95.1094257 386.30532498 68.66404247 386.4429636 C56.37080832 386.5071482 44.07760198 386.57400113 31.78442383 386.64819336 C-20.67247759 386.96317665 -73.12045669 387.1060568 -125.57686782 386.62250781 C-129.11284518 386.59006281 -132.64883299 386.55902611 -136.18482399 386.5281086 C-141.69179288 386.47907246 -147.1986743 386.42425848 -152.70553613 386.3644135 C-154.71616729 386.34296778 -156.72681325 386.3228606 -158.7374723 386.30421138 C-161.48636418 386.27805548 -164.23512465 386.2460086 -166.9839325 386.21226501 C-167.77142767 386.20582381 -168.55892285 386.19938261 -169.37028152 386.19274622 C-174.63819593 386.11913951 -179.77065891 385.64658907 -185 385 C-185.10226258 375.90525811 -184.82086065 366.88866592 -184.25 357.8125 C-184.20876007 357.14255005 -184.16752014 356.4726001 -184.12503052 355.78234863 C-183.22561188 341.25971053 -182.08736273 326.75458924 -180.9375 312.25 C-180.84964233 311.13275543 -180.76178467 310.01551086 -180.67126465 308.8644104 C-180.41852919 305.66451698 -180.16128631 302.46502148 -179.90234375 299.265625 C-179.82634445 298.30240829 -179.75034515 297.33919159 -179.67204285 296.3467865 C-179.59843033 295.45149734 -179.52481781 294.55620819 -179.44897461 293.63378906 C-179.38616806 292.85618225 -179.32336151 292.07857544 -179.25865173 291.27740479 C-179 289 -179 289 -178.4866333 286.45762634 C-177.75601118 282.76779219 -177.72274588 279.0497729 -177.58203125 275.30078125 C-177.03410314 262.89090927 -175.86552043 250.5507605 -174.6875 238.1875 C-174.46221295 235.79696656 -174.23703535 233.4064228 -174.01196289 231.01586914 C-173.34985619 224.00974905 -172.67636098 217.00475632 -172 210 C-171.90485107 209.01008057 -171.80970215 208.02016113 -171.71166992 207.00024414 C-160.14935854 86.7833151 -160.14935854 86.7833151 -118.14306641 51.4375 C-90.52312366 29.32426984 -55.55975937 18.75774237 -22.62768555 7.40673828 C-21.63738846 7.06534317 -20.64709137 6.72394806 -19.62678528 6.37220764 C-17.74911436 5.72563807 -15.87103222 5.08026104 -13.99247742 4.43626404 C-10.63513719 3.28111135 -7.30665507 2.12447356 -4.01611328 0.78881836 C-2 0 -2 0 0 0 Z " fill="#445D75" transform="translate(289,812)"/>
<path d="M0 0 C0.38929688 1.18851562 0.77859375 2.37703125 1.1796875 3.6015625 C13.52822406 40.50774714 33.38884334 72.68406653 57.59277344 102.99462891 C59.14234383 104.94136611 60.66599009 106.90629892 62.1875 108.875 C62.64552002 109.43324463 63.10354004 109.99148926 63.57543945 110.56665039 C78.06457455 129.53268781 67.77593482 170.8218189 65 193 C64.90334045 193.78125244 64.80668091 194.56250488 64.70709229 195.36743164 C61.4215197 221.84248027 57.57300017 247.70175335 46 272 C45.61295898 272.83402344 45.22591797 273.66804688 44.82714844 274.52734375 C36.78557561 291.79173739 26.66512693 305.85904335 14 320 C13.11441406 321.01320313 13.11441406 321.01320313 12.2109375 322.046875 C-8.5343898 344.38799671 -47.21046156 364.01531484 -77.92578125 365.37109375 C-119.4631891 366.17456284 -155.05155063 347.54223117 -186.26123047 321.44824219 C-187.70531515 320.24544658 -189.16517823 319.06162467 -190.62890625 317.8828125 C-202.32597793 308.13176527 -209.89800609 295.75297742 -216 282 C-216.3904248 281.14180664 -216.78084961 280.28361328 -217.18310547 279.39941406 C-229.37400337 252.428064 -235.50511045 225.19043994 -239 196 C-239.09238953 195.23439758 -239.18477905 194.46879517 -239.27996826 193.67999268 C-240.4927071 183.58625791 -241.58245152 173.48417729 -242.56689453 163.36572266 C-242.91197662 159.83374633 -243.293647 156.30694678 -243.68666077 152.7800293 C-244.02889793 149.62704081 -244.3240459 146.46965487 -244.625 143.3125 C-244.82065552 141.64888428 -244.82065552 141.64888428 -245.02026367 139.95166016 C-245.70694504 131.90233246 -243.75185097 127.426014 -239 121 C-238.32195312 119.96488281 -237.64390625 118.92976563 -236.9453125 117.86328125 C-236.34460938 117.02152344 -235.74390625 116.17976563 -235.125 115.3125 C-234.52945312 114.46300781 -233.93390625 113.61351562 -233.3203125 112.73828125 C-227.62200797 106.01351446 -220.89765195 101.3940586 -213.25 97.125 C-212.33532959 96.6103418 -211.42065918 96.09568359 -210.47827148 95.56542969 C-189.72495142 84.07523341 -167.67042231 75.93619069 -144.82299805 69.71435547 C-93.74317088 55.78599028 -44.95499999 36.22271739 -4.1796875 1.65234375 C-2 0 -2 0 0 0 Z " fill="#FEC59C" transform="translate(526,386)"/>
<path d="M0 0 C83.16 0 166.32 0 252 0 C252.0806627 82.06981409 252.0806627 82.06981409 252.09765625 116.30078125 C252.10157209 124.13623055 252.10561308 131.97167978 252.10986328 139.80712891 C252.11039078 140.78919709 252.11091828 141.77126527 252.11146176 142.78309309 C252.12016426 158.64515543 252.13593405 174.5072033 252.15430559 190.36925705 C252.17299782 206.64372371 252.18411529 222.91818278 252.18817699 239.19265974 C252.19092345 249.23772625 252.1996031 259.28275187 252.21583293 269.3278058 C252.22639145 276.21276951 252.22960319 283.09771203 252.22700275 289.98268326 C252.2257197 293.95702758 252.22770928 297.93130036 252.23841095 301.90563202 C252.24813632 305.5439155 252.24863956 309.18207924 252.24179779 312.82036822 C252.24055133 314.76049625 252.24918354 316.70062285 252.25816262 318.6407305 C252.25418052 319.79523054 252.25019842 320.94973058 252.24609566 322.13921547 C252.2468551 323.13332329 252.24761454 324.12743112 252.24839699 325.15166342 C252 328 252 328 250 334 C234.49 334 218.98 334 203 334 C204.69583287 329.76041782 206.61115252 325.83022105 208.7734375 321.828125 C209.52345191 320.42709105 210.27345143 319.02604913 211.0234375 317.625 C212.19634993 315.44156335 213.37031824 313.25869916 214.54492188 311.07617188 C224.39807283 295.38836094 224.39807283 295.38836094 225.375 277.8984375 C223.40031682 273.19093385 220.75218368 270.30833803 216.28125 267.84765625 C212.15090163 266.31292064 208.31378646 266.21830715 204 267 C197.55657447 270.22171277 194.14022647 275.48152807 190.6875 281.625 C190.36120605 282.2027417 190.03491211 282.7804834 189.69873047 283.37573242 C187.27622673 287.6798394 184.88893659 292.0035777 182.49609375 296.32421875 C181.54246948 298.04487549 181.54246948 298.04487549 180.56958008 299.80029297 C179.31215364 302.06964139 178.0587028 304.34103871 176.80737305 306.61376953 C175.59724579 308.80293961 174.34968723 310.97187532 173.06391907 313.11749268 C171.52113632 315.81675192 170.53416707 318.3704291 169.66589355 321.35122681 C167.85388224 326.61938713 165.69155008 330.79946996 161 334 C150.58689796 337.06439605 139.01726504 336.02993891 128.28319311 335.72369695 C123.91011259 335.61696832 119.53681007 335.60740461 115.16262817 335.58726501 C106.89148672 335.53455289 98.6241934 335.39524625 90.35474217 335.22432369 C80.93564646 335.03389188 71.51636069 334.94073791 62.09581733 334.85550129 C42.72836795 334.67809863 23.36449394 334.37935253 4 334 C4.1752527 333.33773061 4.35050541 332.67546122 4.5310688 331.99312305 C5.33054821 328.96649762 6.12648392 325.93895096 6.92236328 322.91137695 C7.19812698 321.86953499 7.47389069 320.82769302 7.75801086 319.75428009 C16.02616996 288.24153381 12.88904621 256.00311724 10.54940796 223.91461182 C9.82636493 213.98541418 9.14359363 204.05340375 8.46484375 194.12109375 C8.39812029 193.14662292 8.33139683 192.1721521 8.26265144 191.16815186 C6.11328816 159.65827438 5.10356848 128.13990422 4.44537354 96.56713867 C4.14653151 82.24557988 3.66461064 67.93698845 3.0625 53.625 C3.02479492 52.68602875 2.98708984 51.7470575 2.94824219 50.77963257 C2.50764819 39.92342053 1.84980446 29.13520491 0.65724182 18.33267212 C-0.00239028 12.1109348 0 6.35581463 0 0 Z " fill="#4A5B68" transform="translate(650,452)"/>
<path d="M0 0 C0.7284613 0.00021149 1.45692261 0.00042297 2.2074585 0.00064087 C36.14006495 0.09796016 73.06462079 8.14394617 98.1875 32.625 C100.15961154 34.68056392 101.79420356 36.62618493 103.390625 38.99609375 C106.3517512 42.14876133 108.59165084 42.39582619 112.8125 43.1875 C126.22561632 46.08411286 138.60171126 51.91108032 148.625 61.375 C149.19460449 61.90512695 149.76420898 62.43525391 150.35107422 62.98144531 C159.01287719 71.10090916 166.3483998 79.252696 172.625 89.375 C173.2128125 90.25542969 173.800625 91.13585937 174.40625 92.04296875 C202.3284365 136.02041249 204.28011826 199.56693942 203.625 250.375 C203.04105469 249.62476563 202.45710938 248.87453125 201.85546875 248.1015625 C196.54269642 241.60714028 191.02930794 236.93029638 182.625 235.375 C177.76002927 234.95437447 173.39273389 235.34143531 168.625 236.375 C168.51542969 235.55257812 168.40585937 234.73015625 168.29296875 233.8828125 C166.10298254 218.46388522 161.91518298 209.35669972 151.86328125 197.51342773 C141.58535696 185.28761007 132.46892535 172.2772702 124.625 158.375 C123.80748386 156.95431647 122.9897678 155.53374797 122.171875 154.11328125 C109.92802729 132.65593815 100.57975834 111.17830562 95.10229492 87.07055664 C94.76872205 85.35570507 94.76872205 85.35570507 93.625 84.375 C91.36858829 83.70738387 91.36858829 83.70738387 88.625 84.375 C86.12472582 86.42376989 84.09978801 88.86381075 82 91.3125 C76.29951502 97.67640349 70.49108609 103.2516237 63.625 108.375 C62.58214844 109.17164063 61.53929687 109.96828125 60.46484375 110.7890625 C51.36929074 117.6027766 41.66000171 123.07495569 31.625 128.375 C30.54476563 128.95636719 29.46453125 129.53773438 28.3515625 130.13671875 C1.13123826 144.29540126 -27.96004868 154.19359986 -57.23175049 163.08535767 C-104.15624722 176.90223394 -104.15624722 176.90223394 -145.375 202.375 C-146.13425781 202.98988281 -146.89351563 203.60476563 -147.67578125 204.23828125 C-153.32430057 208.97544283 -157.42022576 214.16943785 -161.375 220.375 C-167.99318182 218.59318182 -167.99318182 218.59318182 -170.5625 217.125 C-172.44209127 216.1026651 -172.44209127 216.1026651 -174.625 217.25 C-175.2025 217.62125 -175.78 217.9925 -176.375 218.375 C-176.11938677 220.7181213 -175.78229228 223.05343403 -175.375 225.375 C-174.715 225.705 -174.055 226.035 -173.375 226.375 C-172.78144386 229.02360427 -172.63290731 231.66697322 -172.375 234.375 C-176.24393825 235.31899233 -179.59797449 235.33747153 -183.5625 235.125 C-191.54084296 235.1069902 -196.85797177 237.03802441 -202.6640625 242.546875 C-210.64540645 251.66011864 -211.9117616 261.70519004 -211.75 273.5 C-211.73839844 274.5938501 -211.72679687 275.6877002 -211.71484375 276.81469727 C-211.23965041 300.58659337 -204.02338014 321.71852629 -186.53125 338.5859375 C-179.55584585 344.37350109 -173.20558609 347.46574633 -164.25 347.9375 C-163.49589844 347.98068359 -162.74179687 348.02386719 -161.96484375 348.06835938 C-160.10178112 348.1744832 -158.23841476 348.27525001 -156.375 348.375 C-155.37393937 350.93708956 -154.37424184 353.49970106 -153.375 356.0625 C-152.90404907 357.26688721 -152.90404907 357.26688721 -152.42358398 358.49560547 C-150.71502532 362.87844818 -149.03595176 367.26932738 -147.41015625 371.68359375 C-140.98585497 389.05873506 -133.6453152 407.24554613 -121.375 421.375 C-121.375 422.035 -121.375 422.695 -121.375 423.375 C-120.715 423.375 -120.055 423.375 -119.375 423.375 C-119.375 424.035 -119.375 424.695 -119.375 425.375 C-118.715 425.375 -118.055 425.375 -117.375 425.375 C-116.21623502 426.82503924 -115.05762539 428.27520296 -113.89990234 429.72607422 C-111.77544005 432.02332339 -109.33708148 433.49482994 -106.70141602 435.15014648 C-98.27773626 440.53480685 -98.27773626 440.53480685 -95.953125 445.2734375 C-95.36872193 448.71787376 -95.30653303 451.87958122 -95.375 455.375 C-95.33275822 456.99235342 -95.28415989 458.60954868 -95.23046875 460.2265625 C-94.6228406 483.79719278 -94.6228406 483.79719278 -98.9375 489.40625 C-100.97751366 491.28174643 -103.08337495 492.81886272 -105.375 494.375 C-106.096875 494.93445313 -106.81875 495.49390625 -107.5625 496.0703125 C-114.91097804 501.60649697 -123.09581522 505.46619261 -131.375 509.375 C-132.46071289 509.89682861 -132.46071289 509.89682861 -133.56835938 510.42919922 C-147.93128455 517.30540244 -162.78601915 522.7895514 -177.78027344 528.10009766 C-180.08570104 528.91773844 -182.38868477 529.74232255 -184.68847656 530.57568359 C-187.59900529 531.6303492 -190.51624625 532.66298447 -193.4375 533.6875 C-194.28111084 533.99574707 -195.12472168 534.30399414 -195.99389648 534.62158203 C-201.59705813 536.53599075 -201.59705813 536.53599075 -205.1875 535.79296875 C-219.77864497 526.33478014 -227.47547679 504.54605376 -231.25 488.375 C-233.88716475 473.18204683 -234.70697196 457.94849579 -234.63574219 442.55053711 C-234.62509807 439.83749561 -234.63568073 437.12513011 -234.6484375 434.41210938 C-234.65533276 424.5222207 -234.26613248 414.71381455 -233.49853516 404.85375977 C-233.40966475 403.68520447 -233.32079433 402.51664917 -233.22923088 401.31268311 C-232.25362338 388.58924149 -231.20183465 375.87213119 -230.1328125 363.15625 C-230.02931362 361.92285385 -229.92581474 360.6894577 -229.81917953 359.41868591 C-229.27151223 352.894223 -228.72215331 346.36990511 -228.17138672 339.84570312 C-227.72431914 334.54647509 -227.28040046 329.24699826 -226.83935547 323.94726562 C-220.82274744 251.68063001 -220.82274744 251.68063001 -215.5 217 C-215.37593781 216.18143524 -215.25187561 215.36287048 -215.12405396 214.51950073 C-208.58257877 171.55246214 -198.47047922 127.09456768 -172.375 91.375 C-171.60027344 90.30765625 -170.82554687 89.2403125 -170.02734375 88.140625 C-167.84365644 85.1890888 -165.63344703 82.26978471 -163.375 79.375 C-162.80313965 78.6332251 -162.2312793 77.8914502 -161.64208984 77.12719727 C-156.85961092 71.0154618 -151.75500139 65.40350693 -146.25 59.9375 C-145.00222778 58.69709961 -145.00222778 58.69709961 -143.72924805 57.43164062 C-136.99254632 50.82131281 -130.03988226 44.86823687 -122.375 39.375 C-121.75592773 38.9222168 -121.13685547 38.46943359 -120.49902344 38.00292969 C-98.10416639 21.68201679 -73.32618657 11.60916978 -46.375 5.375 C-45.14652344 5.07980469 -43.91804687 4.78460938 -42.65234375 4.48046875 C-28.51664203 1.24535325 -14.45826016 -0.03929892 0 0 Z " fill="#624A42" transform="translate(438.375,280.625)"/>
<path d="M0 0 C9.64867507 2.3755216 18.92167055 5.6772925 28.25 9.0625 C29.43920547 9.49276993 29.43920547 9.49276993 30.6524353 9.93173218 C73.02318634 25.30296278 112.63786672 44.23737287 134 86 C134.53584717 87.01320313 134.53584717 87.01320313 135.08251953 88.046875 C140.69543959 98.7081169 144.0274383 109.32535903 146.55444336 121.09326172 C147.01672556 123.20361714 147.01672556 123.20361714 148 126 C148.03954234 128.33299825 148.04401732 130.66708189 148 133 C146.99839844 133.51949219 145.99679687 134.03898438 144.96484375 134.57421875 C131.98735384 140.58139965 131.98735384 140.58139965 123 151 C123.1973078 154.06202003 123.1973078 154.06202003 123.75 157.25 C123.859375 160.71875 123.859375 160.71875 123 164 C119.50502431 166.90351827 115.88212754 168.82155858 111.87109375 170.90625 C106.72555168 173.58287715 102.6405154 176.72711894 100 182 C98.75789735 188.97423855 99.24560906 194.89911472 103 201 C103 202.32 103 203.64 103 205 C102.34 205 101.68 205 101 205 C100.71125 205.721875 100.4225 206.44375 100.125 207.1875 C99 210 99 210 97.953125 212.140625 C96.45830649 216.62508052 96.64145799 221.15346117 96.609375 225.84960938 C96.42946841 231.52166428 96.42946841 231.52166428 94.21484375 233.98828125 C93.48394531 234.65214844 92.75304687 235.31601563 92 236 C90.43085849 238.77986669 89.19041899 241.69140202 87.9375 244.625 C87.4125293 245.8459436 87.4125293 245.8459436 86.87695312 247.09155273 C85.90221998 249.3881874 84.94771897 251.69211391 84 254 C83.60941406 254.92683594 83.21882812 255.85367187 82.81640625 256.80859375 C79.27731699 266.57918946 79.36336457 279.71744627 83.37890625 289.29296875 C86.26206407 294.10749494 89.96530633 298.21092019 93.734375 302.34765625 C96 305 96 305 96 307 C94.63875 307.804375 94.63875 307.804375 93.25 308.625 C85.60103925 313.57859144 84.18311325 324.79557486 82.0625 333 C81.89080292 333.65562927 81.71910583 334.31125854 81.54220581 334.98675537 C79.18586102 343.98926736 76.99506587 353.02092311 75.0625 362.125 C74.86342041 363.05183594 74.66434082 363.97867187 74.45922852 364.93359375 C73.10371141 371.59726521 72.46453772 378.22104028 72 385 C54.81392401 385.91166141 37.70598429 386.07433844 20.5 385.87890625 C17.95597837 385.85452246 15.41195147 385.83068352 12.86791992 385.80735779 C6.92940879 385.7516249 0.99097313 385.69052829 -4.94745541 385.62663645 C-11.72655439 385.55401386 -18.50571713 385.4885422 -25.28489304 385.42356598 C-39.19001145 385.29013514 -53.09503024 385.14806604 -67 385 C-67 384.67 -67 384.34 -67 384 C-84.82 383.67 -102.64 383.34 -121 383 C-121.61054521 360.40091421 -121.61054521 360.40091421 -121.79492188 350.73632812 C-121.92079582 344.15178203 -122.05645498 337.56849746 -122.25170898 330.9855957 C-122.40857877 325.67558577 -122.52044855 320.36632582 -122.60171318 315.05463982 C-122.64044981 313.03258442 -122.6951525 311.01076734 -122.76637459 308.98959541 C-123.30915958 293.14625561 -123.30915958 293.14625561 -120.06417847 287.8263855 C-117.82662122 285.57563923 -115.59619424 283.81066443 -113 282 C-111.88212122 280.8449613 -110.79165281 279.66172497 -109.75 278.4375 C-108.91082031 277.45716797 -108.91082031 277.45716797 -108.0546875 276.45703125 C-107.37664062 275.64621094 -106.69859375 274.83539062 -106 274 C-105.32759277 273.19828369 -105.32759277 273.19828369 -104.64160156 272.38037109 C-96.50271242 262.63740963 -88.90448238 252.58346293 -81.57324219 242.22167969 C-80.05856121 240.08269817 -78.53445415 237.95076759 -77.0078125 235.8203125 C-64.64164267 218.50726506 -53.0217545 200.69822966 -41.69384766 182.69238281 C-40.59158437 180.94032753 -39.48720205 179.189603 -38.38037109 177.44042969 C-29.81580376 163.89413464 -21.7932794 150.06569443 -13.90200806 136.12112427 C-11.74138328 132.30347191 -9.56862596 128.49302593 -7.38671875 124.6875 C-6.83314697 123.72199219 -6.2795752 122.75648438 -5.70922852 121.76171875 C-4.68280952 119.9724058 -3.65598002 118.18332824 -2.62866211 116.39453125 C-1.95009155 115.20923828 -1.95009155 115.20923828 -1.2578125 114 C-0.8673877 113.319375 -0.47696289 112.63875 -0.07470703 111.9375 C2.67644926 106.97766893 3.56051024 103.67516614 3 98 C2.40019748 95.62818755 2.40019748 95.62818755 1 94 C0.42765625 93.74605469 -0.1446875 93.49210938 -0.734375 93.23046875 C-3.82307945 91.55298271 -6.07052916 89.17985904 -8.5 86.6875 C-8.97308594 86.21376953 -9.44617188 85.74003906 -9.93359375 85.25195312 C-18 77.0849961 -18 77.0849961 -18 74 C-16.97261719 73.57589844 -15.94523438 73.15179687 -14.88671875 72.71484375 C0.49815118 67.17420439 0.49815118 67.17420439 11 56 C12.06891836 48.18437876 10.08577106 40.50206194 8.3125 32.9375 C8.04356934 31.75679932 7.77463867 30.57609863 7.49755859 29.35961914 C5.58987637 21.13098512 3.41025542 13.02322125 0.8828125 4.96484375 C0 2 0 2 0 0 Z " fill="#445D75" transform="translate(570,813)"/>
<path d="M0 0 C1.92006002 9.56891449 1.99818199 17.37767843 0.35687256 27.00708008 C-0.29639587 30.88401089 -0.86258399 34.77373708 -1.4296875 38.6640625 C-1.55648895 39.53158142 -1.68329041 40.39910034 -1.81393433 41.29290771 C-3.62297629 53.98478235 -4.85861948 66.74474788 -6.125 79.5 C-6.25363434 80.79234558 -6.38226868 82.08469116 -6.51480103 83.41619873 C-8.34763703 101.97765794 -9.85988034 120.53988162 -11.02783203 139.15429688 C-11.67531334 149.46041975 -12.47827241 159.72377824 -13.5 170 C-20.81580339 235.74194606 -20.81580339 235.74194606 -14 301 C-13.77602539 301.98073486 -13.55205078 302.96146973 -13.32128906 303.97192383 C-11.80789701 310.35837767 -9.9471744 316.39985592 -7.375 322.4375 C-7.03307617 323.24517822 -6.69115234 324.05285645 -6.33886719 324.88500977 C-2.73086506 333.0910146 1.82171618 340.90095949 8.265625 347.22265625 C10 349 10 349 10 351 C8.38158203 351.69222656 8.38158203 351.69222656 6.73046875 352.3984375 C-23.26399667 365.38318634 -53.81123267 381.34764317 -72.22265625 409.34765625 C-74 412 -74 412 -76 414 C-79.62460674 410.80040246 -81.67650817 407.23300404 -83.75 402.9375 C-84.09361572 402.23270508 -84.43723145 401.52791016 -84.79125977 400.80175781 C-85.87859155 398.54240569 -86.94393145 396.27412273 -88 394 C-88.4957251 392.93386475 -88.4957251 392.93386475 -89.00146484 391.84619141 C-104.00885641 359.05447946 -111.949911 323.79464789 -115 288 C-115.19529297 286.06640625 -115.19529297 286.06640625 -115.39453125 284.09375 C-116.45474306 272.44555621 -116.17324257 260.68281572 -116 249 C-115.98743164 248.10361816 -115.97486328 247.20723633 -115.96191406 246.28369141 C-114.57005981 172.24556667 -87.22720417 97.62991453 -41 40 C-40.33742188 39.16339844 -39.67484375 38.32679688 -38.9921875 37.46484375 C-8.9125 0 -8.9125 0 0 0 Z " fill="#DCF2FE" transform="translate(211,472)"/>
<path d="M0 0 C37.47910182 -0.09153129 74.95818681 -0.1620264 112.43737776 -0.20426132 C116.86092129 -0.20926422 121.28446461 -0.2144415 125.70800781 -0.21972656 C126.58866531 -0.2207758 127.4693228 -0.22182505 128.37666689 -0.22290608 C142.64103833 -0.24031706 156.90534537 -0.27185856 171.16967858 -0.30861118 C185.80336412 -0.34600134 200.43701591 -0.36823177 215.07074726 -0.37635398 C224.10246294 -0.38184576 233.13399659 -0.39919853 242.16565625 -0.43166587 C248.35681783 -0.45278999 254.54788514 -0.45920482 260.73908015 -0.45400551 C264.31251856 -0.45144043 267.88563863 -0.45540576 271.45902061 -0.4768219 C275.33250935 -0.49986725 279.20558219 -0.49196112 283.07913208 -0.48101807 C284.20948478 -0.49266943 285.33983748 -0.5043208 286.50444329 -0.51632524 C292.49663013 -0.47041784 296.36362223 -0.21399887 301 4 C304.29985826 7.47171806 304.37635858 10.08695777 304.38031673 14.80046654 C304.38497665 15.48707568 304.38963657 16.17368482 304.3944377 16.8811003 C304.40643441 19.19292912 304.39697464 21.50417529 304.38768005 23.81600952 C304.39185095 25.48573339 304.39732711 27.15545442 304.40399987 28.82517016 C304.41850551 33.42224262 304.41419383 38.01913659 304.40683305 42.61621904 C304.40211627 47.57065566 304.41459803 52.52505282 304.42485046 57.47947693 C304.44207343 67.18923231 304.44287119 76.89892308 304.43763756 86.60868977 C304.43360093 94.49899674 304.43503337 102.38928456 304.44038582 110.27959061 C304.44113424 111.40133761 304.44188266 112.52308462 304.44265376 113.67882396 C304.4441852 115.95744844 304.44572354 118.23607291 304.44726873 120.51469739 C304.46100656 141.89831473 304.4555472 163.28189552 304.44408352 184.66551204 C304.43415095 204.23864956 304.44708997 223.81169256 304.47101771 243.3848155 C304.4953867 263.46982137 304.50502193 283.55478317 304.49836498 303.63980353 C304.49486772 314.92107429 304.49713817 326.20227234 304.51461601 337.48353195 C304.52931055 347.08766676 304.53000953 356.69167766 304.5125451 366.29580997 C304.50400982 371.19780372 304.50194701 376.09957588 304.51719666 381.0015583 C304.5309788 385.48728347 304.52636447 389.97259584 304.50695742 394.45829673 C304.5031771 396.08276723 304.5061775 397.70727028 304.51656907 399.33171193 C304.52967884 401.53759164 304.51821151 403.74203393 304.50057125 405.94785118 C304.50046391 407.17369844 304.50035658 408.3995457 304.50024599 409.66253984 C303.89945566 413.67079544 302.50202096 415.84955028 300 419 C294.25765685 422.53656903 287.24155485 422.41785434 280.70678711 422.34057617 C279.22714981 422.34123329 279.22714981 422.34123329 277.71762085 422.34190369 C274.48732056 422.33982918 271.25755233 422.3165614 268.02734375 422.29296875 C265.77576481 422.28736804 263.52418219 422.28310019 261.27259827 422.28010559 C255.36904671 422.26869428 249.46571933 422.23925907 243.56225586 422.20599365 C237.52916495 422.17521258 231.49603755 422.16158311 225.46289062 422.14648438 C213.64182902 422.11438581 201.82093321 422.06323451 190 422 C197.11398667 400.31120493 197.11398667 400.31120493 205 393 C213.49225125 389.31573755 223.31083995 390.69179827 232.3125 391.3125 C235.99432735 391.46372868 239.67546857 391.58227736 243.3589325 391.68559265 C245.63868739 391.76052862 247.9176719 391.86881908 250.19392395 392.01570129 C257.06472117 392.37637892 261.1591669 391.73093239 267 388 C268.68519181 386.15296905 268.68519181 386.15296905 269.4375 384.0625 C269.72496094 383.41410156 270.01242187 382.76570313 270.30859375 382.09765625 C271.73251627 377.77762012 272.12547123 373.71795229 272.12863445 369.18252563 C272.1318589 368.01219976 272.13508335 366.84187389 272.1384055 365.6360836 C272.1368569 364.35448168 272.1353083 363.07287975 272.13371277 361.75244141 C272.13558125 360.37400564 272.1378821 358.9955704 272.14057809 357.617136 C272.14669773 353.8299541 272.14656231 350.04279427 272.14538372 346.25560856 C272.14517976 342.17103294 272.15069795 338.08646441 272.15544128 334.00189209 C272.1637488 326.00046378 272.16649615 317.99904283 272.16705366 309.99761057 C272.16752868 303.49557802 272.16958272 296.9935479 272.17275429 290.49151611 C272.18156037 272.06364945 272.18617362 253.63578862 272.18542381 235.20791984 C272.18538386 234.21440395 272.1853439 233.22088806 272.18530273 232.19726562 C272.18526185 231.20253935 272.18522097 230.20781308 272.18517885 229.18294358 C272.18477218 213.05264575 272.19434729 196.92237124 272.2084411 180.79208016 C272.22279297 164.23608438 272.22971197 147.68009999 272.22884732 131.12409782 C272.22851499 121.82647593 272.23127811 112.5288785 272.24202538 103.23126221 C272.25111465 95.31724081 272.25331854 87.40325498 272.24651595 79.48923063 C272.24324305 75.45017009 272.24322178 71.41117783 272.2518692 67.37212372 C272.25970099 63.67610827 272.258337 59.98021562 272.24958507 56.28420329 C272.247311 54.3107707 272.25490463 52.3373344 272.26282471 50.3639164 C272.25592652 48.60842759 272.25592652 48.60842759 272.24888897 46.81747437 C272.24910634 45.80747061 272.24932371 44.79746685 272.24954766 43.75685692 C271.98070177 40.7868044 271.36065479 38.64926238 270 36 C264.85533957 33.30261954 259.19091333 33.71036339 253.52175903 33.7215271 C252.46715953 33.7157347 251.41256002 33.7099423 250.32600296 33.70397437 C246.79298789 33.686972 243.26010345 33.68409761 239.72705078 33.68115234 C237.194175 33.67185435 234.66130229 33.66168587 232.12843323 33.65071106 C226.67571018 33.62904415 221.2230233 33.61343332 215.77026749 33.60334396 C207.88655289 33.58874606 200.00290347 33.56320612 192.11922716 33.53501268 C179.32787444 33.48956488 166.53651232 33.45294176 153.74511719 33.421875 C141.32094677 33.39168122 128.89679931 33.35732714 116.47265625 33.31738281 C115.70657473 33.31492126 114.9404932 33.31245972 114.15119709 33.30992357 C110.30791436 33.29754881 106.4646319 33.28509231 102.62134957 33.27259517 C70.7475974 33.1690575 38.87382023 33.07999146 7 33 C5.0323027 27.18311209 3.66779821 21.37298242 2.375 15.375 C2.03082031 13.82039063 2.03082031 13.82039063 1.6796875 12.234375 C1.463125 11.23664063 1.2465625 10.23890625 1.0234375 9.2109375 C0.72832275 7.85427979 0.72832275 7.85427979 0.42724609 6.47021484 C0 4 0 4 0 0 Z " fill="#676C6F" transform="translate(641,406)"/>
<path d="M0 0 C0.33 0 0.66 0 1 0 C1.03092239 0.71963425 1.06184479 1.43926849 1.09370422 2.18070984 C1.48938277 11.35012221 1.89622757 20.51900162 2.3125 29.6875 C2.34571098 30.41906437 2.37892197 31.15062874 2.41313934 31.90436172 C3.22349626 49.68650003 4.07800803 67.45100632 5.625 85.1875 C5.68882874 85.92453156 5.75265747 86.66156311 5.81842041 87.42092896 C6.11188163 90.80054381 6.40864371 94.17985504 6.70654297 97.55908203 C7.40108723 105.70293129 7.8175238 113.829562 8 122 C8.03254883 123.28052246 8.06509766 124.56104492 8.09863281 125.88037109 C9.02006363 164.99474349 2.93483397 196.3637368 -21 228 C-26.01760552 227.41753839 -30.41213543 226.34105922 -35.20703125 224.6640625 C-35.8812915 224.42915604 -36.55555176 224.19424957 -37.25024414 223.95222473 C-39.44076359 223.18496334 -41.6269645 222.4063375 -43.8125 221.625 C-44.56510101 221.35744904 -45.31770203 221.08989807 -46.09310913 220.8142395 C-64.24963353 214.3438227 -82.08185332 207.24534183 -99.25 198.4375 C-100.03479736 198.03909912 -100.81959473 197.64069824 -101.62817383 197.23022461 C-104.13750493 195.89822118 -106.55942789 194.45418801 -109 193 C-109.58119598 192.69591217 -110.16239197 192.39182434 -110.76119995 192.07852173 C-121.62870666 186.34377837 -121.62870666 186.34377837 -123.79876709 181.05227661 C-124.87181762 176.46614505 -124.86816017 171.93403753 -124.66040039 167.24926758 C-124.56194237 164.79862049 -124.59854265 162.37542627 -124.65039062 159.92382812 C-124.61316932 148.70651819 -124.61316932 148.70651819 -120.65844727 144.52294922 C-117.84483424 142.76530889 -115.01220133 141.38148428 -112 140 C-109.74707589 138.30646654 -107.8557595 136.45968471 -105.8125 134.5 C-102.56317981 131.41696302 -99.31109185 128.37608493 -95.875 125.5 C-70.45431707 103.2306414 -55.72727368 69.23485246 -48 37 C-47.34515625 37.10699219 -46.6903125 37.21398437 -46.015625 37.32421875 C-37.05722132 38.50095822 -28.40828233 37.74249083 -20.8125 32.4375 C-19.50758876 31.33063142 -18.2383769 30.18083616 -17 29 C-16.24847656 28.2884375 -15.49695313 27.576875 -14.72265625 26.84375 C-7.16338375 19.09581013 -3.28256496 10.19885301 0 0 Z " fill="#58423B" transform="translate(643,589)"/>
<path d="M0 0 C4.01192992 1.55248659 7.54841563 3.42334674 11.25 5.625 C41.26346755 23.03281118 77.32386408 34.31566351 111.98583984 25.54345703 C122.85815145 22.60990968 133.02365655 18.8633325 142.96289062 13.5402832 C147.72506991 11 147.72506991 11 151 11 C151.34044536 19.34272218 151.63341322 27.68624761 151.87988281 36.03222656 C151.95547406 38.5291961 152.0372623 41.02599336 152.12792969 43.52246094 C152.66170353 59.00190237 151.20271198 73.0292741 147.66259766 88.10498047 C147.02603755 90.8862368 146.45786785 93.67119679 145.91796875 96.47265625 C141.97068746 116.92003955 141.97068746 116.92003955 135.5 122.1875 C127.51853846 127.4938563 118.97902673 131.18007748 109.9375 134.25 C109.21836426 134.49621094 108.49922852 134.74242187 107.75830078 134.99609375 C81.19883873 143.65587782 53.56038716 139.36849255 29.00390625 126.99414062 C19.64442108 121.95209539 8.00607151 114.70720176 4.36523438 104.16137695 C3.71189395 101.95165648 3.12537354 99.7344931 2.5625 97.5 C2.24708252 96.24920654 2.24708252 96.24920654 1.92529297 94.97314453 C1.26922093 92.31869781 0.6340465 89.65978369 0 87 C-0.20866699 86.16307617 -0.41733398 85.32615234 -0.63232422 84.46386719 C-4.25187547 69.70346965 -5.73314888 53.7156113 -2.50488281 38.6965332 C-1.81807474 35.02835372 -1.65328331 31.35630369 -1.46484375 27.63671875 C-1.42186661 26.84473587 -1.37888947 26.05275299 -1.33460999 25.23677063 C-1.19884333 22.72051536 -1.06810067 20.20402816 -0.9375 17.6875 C-0.84603518 15.97589368 -0.75424191 14.26430488 -0.66210938 12.55273438 C-0.43760207 8.36868289 -0.21759851 4.18441624 0 0 Z " fill="#FEC39B" transform="translate(355,735)"/>
<path d="M0 0 C0.05607422 1.51013672 0.05607422 1.51013672 0.11328125 3.05078125 C0.89732945 20.9331114 4.11144257 37.8072589 9 55 C9.33 56.17691406 9.66 57.35382812 10 58.56640625 C10.6351407 60.80792363 11.27728675 63.04746575 11.92578125 65.28515625 C12.7044579 67.9779617 13.47265626 70.6724425 14.23046875 73.37109375 C24.95123132 111.45068548 37.13859262 148.95078167 51 186 C51.73319654 187.96870396 52.46627653 189.93745134 53.19921875 191.90625 C55.45156451 197.94301508 57.72505141 203.97172378 60 210 C60.51959786 211.37888115 61.03912521 212.75778887 61.55859375 214.13671875 C67.51569666 229.94719954 73.49265641 245.74855035 79.61904907 261.49432373 C83.36172104 271.11488385 87.07334033 280.74446327 90.625 290.4375 C90.94388184 291.30109131 91.26276367 292.16468262 91.59130859 293.05444336 C94.6423486 301.46962568 96.29457106 309.03711495 96.625 318 C96.66367187 318.87011719 96.70234375 319.74023438 96.7421875 320.63671875 C96.83540887 322.75750486 96.91874136 324.87872185 97 327 C96.34 327 95.68 327 95 327 C93.6672812 325.53309441 92.41086131 323.99677499 91.1875 322.4375 C87.42446255 317.72462833 83.54345967 313.15467551 79.5625 308.625 C74.19243666 302.48068457 69.16267133 296.15141307 64.24902344 289.64013672 C62.03467826 286.73240198 59.76458297 283.86865614 57.5 281 C48.25779785 269.25376087 39.27648173 257.37827414 30.58642578 245.21728516 C29.15566227 243.21756305 27.71742148 241.22348548 26.27734375 239.23046875 C15.42328003 224.1187881 5.2379709 208.53206561 -5 193 C-5.70012207 191.93990723 -6.40024414 190.87981445 -7.12158203 189.78759766 C-16.23448577 175.93267449 -24.44912951 161.65338108 -32.3203125 147.06494141 C-33.4504085 145.00284472 -34.61270413 142.95810458 -35.8046875 140.93115234 C-36.36414063 139.96773926 -36.92359375 139.00432617 -37.5 138.01171875 C-38.0053125 137.16440186 -38.510625 136.31708496 -39.03125 135.4440918 C-40.2108113 132.46813711 -39.99194487 131.00980103 -39 128 C-37.1796875 125.60546875 -37.1796875 125.60546875 -34.875 123.1875 C-34.05902344 122.31867188 -33.24304688 121.44984375 -32.40234375 120.5546875 C-31.21318359 119.29011719 -31.21318359 119.29011719 -30 118 C-28.80631898 116.60944883 -27.61820985 115.21408167 -26.4375 113.8125 C-23.42987302 110.3399939 -20.13305463 107.37686002 -16.6015625 104.4453125 C-14.3175125 102.38409665 -14.02608591 101.19999194 -13.625 98.125 C-13.67689223 94.87575224 -13.67689223 94.87575224 -16.12817383 92.98876953 C-19.11418617 90.92092489 -21.98894701 89.48700675 -25.32421875 88.0546875 C-26.51724609 87.53519531 -27.71027344 87.01570312 -28.93945312 86.48046875 C-30.1885402 85.94470154 -31.43789227 85.40955172 -32.6875 84.875 C-35.15231116 83.81562195 -37.61376293 82.74921897 -40.07421875 81.6796875 C-41.16307373 81.21288574 -42.25192871 80.74608398 -43.3737793 80.26513672 C-46 79 -46 79 -48 77 C-48.28226058 69.50221812 -45.97698608 61.79321019 -44.25 54.5625 C-43.98340576 53.43175049 -43.71681152 52.30100098 -43.44213867 51.13598633 C-42.63889165 47.75461016 -41.82273249 44.37668379 -41 41 C-40.76168457 40.0193457 -40.52336914 39.03869141 -40.27783203 38.02832031 C-39.63534483 35.41132648 -38.97833432 32.79864045 -38.3125 30.1875 C-38.12268555 29.42445557 -37.93287109 28.66141113 -37.73730469 27.87524414 C-35.2806611 18.49193373 -35.2806611 18.49193373 -31.1574707 15.79467773 C-28.80331966 14.49630894 -26.41764413 13.30078651 -24 12.125 C-17.39108536 8.79931223 -11.13561889 5.3716117 -5.03125 1.1796875 C-3 0 -3 0 0 0 Z " fill="#445D76" transform="translate(339,787)"/>
<path d="M0 0 C6.05556204 0.40815676 9.69906111 2.34543692 14.65063477 5.67114258 C17.68695685 7.66261644 20.55590352 9.29642351 23.96484375 10.5703125 C33.47984602 14.29580006 33.47984602 14.29580006 36.16162109 19.06640625 C38.22809409 24.25771141 39.3609195 29.6503056 40.42480469 35.12158203 C40.99804785 37.99023096 41.66976981 40.81545951 42.3828125 43.65234375 C48.14873787 66.6024709 48.14873787 66.6024709 48 76 C46.34003906 76.82998047 44.68006266 77.65993003 43.02001953 78.48974609 C41.5806318 79.20960379 40.14150737 79.92998821 38.70263672 80.65087891 C35.1045409 82.45269885 31.50342844 84.24736163 27.890625 86.01953125 C27.25527832 86.33269287 26.61993164 86.64585449 25.96533203 86.96850586 C24.20993557 87.8331632 22.45266993 88.6940227 20.6953125 89.5546875 C17.94498847 90.86234181 17.94498847 90.86234181 16 93 C15.50580875 96.67841323 15.58987371 98.40666537 17.72265625 101.4921875 C18.49480469 102.27851562 19.26695312 103.06484375 20.0625 103.875 C20.8875 104.73609375 21.7125 105.5971875 22.5625 106.484375 C23.366875 107.31453125 24.17125 108.1446875 25 109 C26.1970807 110.36666713 27.38553265 111.74097358 28.5625 113.125 C31.65278267 116.72427041 35.04521216 119.8982757 38.59375 123.04296875 C40 125 40 125 39.74316406 127.32568359 C38.97070265 130.1054281 37.947615 132.24566944 36.515625 134.74609375 C35.99919434 135.65464111 35.48276367 136.56318848 34.95068359 137.49926758 C34.10884521 138.95369263 34.10884521 138.95369263 33.25 140.4375 C32.66943848 141.45158936 32.08887695 142.46567871 31.49072266 143.51049805 C25.42852605 154.06663091 19.25791461 164.55882721 13 175 C12.52852539 175.78713379 12.05705078 176.57426758 11.57128906 177.38525391 C4.78720934 188.67841146 -2.32421338 199.74025019 -9.54101562 210.76074219 C-10.80485955 212.70049729 -12.05617561 214.64695978 -13.296875 216.6015625 C-27.49901999 238.97261043 -42.59844277 260.82118877 -59.52490234 281.22070312 C-61.71747638 283.86543659 -63.88920508 286.52690328 -66.0625 289.1875 C-66.73410156 290.00605469 -67.40570313 290.82460937 -68.09765625 291.66796875 C-69.47181203 293.35250879 -70.80862758 295.06774581 -72.12109375 296.80078125 C-72.74113281 297.52652344 -73.36117188 298.25226563 -74 299 C-74.66 299 -75.32 299 -76 299 C-76.8465686 296.1700421 -77.67738086 293.33692438 -78.5 290.5 C-78.73847656 289.70851563 -78.97695313 288.91703125 -79.22265625 288.1015625 C-79.56103516 286.92207031 -79.56103516 286.92207031 -79.90625 285.71875 C-80.11572266 285.00654297 -80.32519531 284.29433594 -80.54101562 283.56054688 C-81.71813535 276.9937215 -80.93255935 271.60320484 -78.76171875 265.36328125 C-78.52553329 264.65501694 -78.28934784 263.94675262 -78.04600525 263.21702576 C-77.27245668 260.91102946 -76.48073798 258.61179049 -75.6875 256.3125 C-75.13614313 254.68731449 -74.58520473 253.06198695 -74.03466797 251.43652344 C-70.35597595 240.64144301 -66.41720821 229.96504954 -62.30102539 219.32885742 C-58.19447678 208.66800723 -54.38844865 197.9109867 -50.625 187.125 C-50.3299054 186.28046265 -50.03481079 185.43592529 -49.73077393 184.5657959 C-42.28837328 163.38331634 -42.28837328 163.38331634 -35.875 141.875 C-32.40011968 129.23481125 -28.6668267 116.67662611 -24.90771484 104.11865234 C-20.89908642 90.7230555 -16.99073993 77.32466114 -13.625 63.75 C-13.17991089 61.96166748 -13.17991089 61.96166748 -12.72583008 60.13720703 C-10.64634829 51.73182762 -8.63851354 43.31108981 -6.6875 34.875 C-6.44531738 33.82795898 -6.20313477 32.78091797 -5.95361328 31.70214844 C-3.00099387 19.18115813 -3.00099387 19.18115813 -1.4375 6.4375 C-1.10461957 1.10461957 -1.10461957 1.10461957 0 0 Z " fill="#445D76" transform="translate(521,790)"/>
<path d="M0 0 C0.76892578 -0.02900391 1.53785156 -0.05800781 2.33007812 -0.08789062 C8.8141061 -0.15902342 13.85657379 1.34611168 18.76245117 5.71508789 C20.22173129 7.25421307 21.5575216 8.8381779 22.875 10.5 C23.34558838 11.08241455 23.81617676 11.6648291 24.30102539 12.26489258 C25.62232287 13.92945592 26.91173161 15.61289537 28.1875 17.3125 C28.73921875 18.0446875 29.2909375 18.776875 29.859375 19.53125 C40.97784529 36.82664823 40.29102879 66.01273613 36.1875 85.3125 C33.1466332 98.19000575 28.4422018 110.1773011 22.73095703 122.08007812 C21.57385025 124.50337673 20.42972266 126.9308545 19.29638672 129.36523438 C17.51737036 133.18617683 15.71958286 136.99784944 13.91104126 140.80490112 C13.19228953 142.32289152 12.47820655 143.84310353 11.76937866 145.36575317 C6.97133269 155.64442725 1.43583289 164.65017897 -5.51039124 173.61592102 C-10.58123891 179.76745185 -10.58123891 179.76745185 -12.625 187.25 C-12.67269531 188.02214844 -12.72039062 188.79429687 -12.76953125 189.58984375 C-12.78371094 190.15832031 -12.79789063 190.72679687 -12.8125 191.3125 C-9.45816891 190.36316101 -6.12003495 189.41501165 -2.8125 188.3125 C-4.20088978 193.55752805 -7.45682781 196.3662656 -11.8125 199.3125 C-24.95681642 205.65212375 -43.15580872 205.27893302 -57.01171875 201.3515625 C-69.90678967 196.56761708 -69.90678967 196.56761708 -73.5 190.625 C-74.8125 187.3125 -74.8125 187.3125 -74.8125 184.3125 C-74.173125 184.126875 -73.53375 183.94125 -72.875 183.75 C-70.40605023 182.37279418 -70.40605023 182.37279418 -70 178.75 C-69.938125 177.615625 -69.87625 176.48125 -69.8125 175.3125 C-70.1425 174.9825 -70.4725 174.6525 -70.8125 174.3125 C-71.79438998 162.56201338 -70.54036018 150.37795259 -64.75 139.875 C-60.93340306 136.5456282 -58.48109958 136.44454727 -53.52734375 136.73046875 C-50.02433237 137.48147407 -48.0617299 138.97406092 -45.375 141.25390625 C-43.66999256 142.62216018 -43.66999256 142.62216018 -40.5 142.3125 C-37.51440184 141.50059024 -37.51440184 141.50059024 -35.8125 138.3125 C-35.59816498 134.59735969 -35.95609599 132.30097595 -38.43359375 129.44140625 C-43.76739512 124.8905482 -49.2623127 122.89475933 -55.9921875 121.13671875 C-58.8125 120.3125 -58.8125 120.3125 -61.8125 118.3125 C-64.84654655 118.01378937 -67.85530551 117.93462922 -70.90234375 117.8515625 C-74.47143223 117.19044276 -75.65824027 116.19503193 -77.8125 113.3125 C-78.34375 111.3125 -78.34375 111.3125 -78.3125 109.3125 C-78.32796875 108.3225 -78.32796875 108.3225 -78.34375 107.3125 C-77.57377179 104.41375851 -76.09243222 103.21506413 -73.8125 101.3125 C-64.81283786 96.21478928 -53.74808902 95.79224767 -43.80078125 97.97265625 C-35.40038346 100.80549112 -27.17387481 105.40491679 -19.8125 110.3125 C-14.77248592 110.08037034 -14.77248592 110.08037034 -10.8125 107.3125 C-10.22904524 104.35503508 -10.22904524 104.35503508 -10.8125 101.3125 C-13.05391894 99.74266779 -13.05391894 99.74266779 -15.8125 98.3125 C-16.67746094 97.76851562 -17.54242187 97.22453125 -18.43359375 96.6640625 C-29.54175397 89.85434431 -41.03317689 85.19170549 -54.1875 85.125 C-56.08628906 85.10373047 -56.08628906 85.10373047 -58.0234375 85.08203125 C-61.89828072 85.31771759 -65.10984924 86.19463527 -68.8125 87.3125 C-70.1325 87.3125 -71.4525 87.3125 -72.8125 87.3125 C-73.86958776 83.61269286 -74.09172368 81.88308752 -72.375 78.375 C-66.20425596 71.00020835 -60.20039262 66.18082649 -50.4050293 65.02954102 C-47.92834525 64.91157993 -45.47905231 64.89568987 -43 64.9375 C-42.12561279 64.94765137 -41.25122559 64.95780273 -40.3503418 64.96826172 C-29.11183166 65.23646407 -20.79411616 67.47763216 -11.8125 74.3125 C-10.09104764 75.59376363 -8.36172498 76.86451555 -6.625 78.125 C-5.84769531 78.70894531 -5.07039062 79.29289062 -4.26953125 79.89453125 C-1.39050918 81.55603365 0.88665099 82.04003479 4.1875 82.3125 C5.1775 81.9825 6.1675 81.6525 7.1875 81.3125 C8.61208389 78.46333222 8.52698325 76.46466755 8.1875 73.3125 C6.40069797 71.19145609 6.40069797 71.19145609 3.83203125 69.5859375 C2.90543701 68.9480127 1.97884277 68.31008789 1.02416992 67.65283203 C0.02619385 67.00427246 -0.97178223 66.35571289 -2 65.6875 C-3.00635498 65.01960449 -4.01270996 64.35170898 -5.04956055 63.66357422 C-18.14468031 55.20865649 -30.43486859 53.15713158 -45.8125 53.0625 C-47.06933594 53.0315625 -47.06933594 53.0315625 -48.3515625 53 C-53.6431357 52.96723484 -57.87582582 53.71668368 -62.8046875 55.66503906 C-64.8125 56.3125 -64.8125 56.3125 -68.8125 56.3125 C-70.39070951 53.15608097 -70.21220077 50.78653477 -69.8125 47.3125 C-67.42578125 45.0546875 -67.42578125 45.0546875 -64.125 43.1875 C-63.25391602 42.68947876 -63.25391602 42.68947876 -62.36523438 42.18139648 C-46.43632775 33.35319864 -28.54928337 30.29806205 -10.8125 35.3125 C-2.90854025 37.88678476 2.62447598 42.46169327 8.21875 48.5078125 C12.42169272 53.24422356 12.42169272 53.24422356 18.1875 55.3125 C19.1775 55.3125 20.1675 55.3125 21.1875 55.3125 C23.69753699 51.54744452 23.74986641 49.77330478 23.1875 45.3125 C21.41147743 43.090946 19.96204986 41.57889747 17.8125 39.8125 C17.26883789 39.34328125 16.72517578 38.8740625 16.16503906 38.390625 C-0.55167573 24.18190537 -18.05314646 19.90528312 -39.8125 21.3125 C-42.16210559 21.58310064 -44.47717697 21.93147361 -46.8125 22.3125 C-47.1875 19.625 -47.1875 19.625 -46.8125 16.3125 C-41.54629758 10.55465929 -34.44817074 8.61336369 -27.25 6.0625 C-26.03119141 5.61648438 -24.81238281 5.17046875 -23.55664062 4.7109375 C-15.45301415 1.77709577 -8.58576074 0.10634716 0 0 Z " fill="#FCC69D" transform="translate(751.8125,949.6875)"/>
<path d="M0 0 C1.17433594 0.58007812 2.34867187 1.16015625 3.55859375 1.7578125 C16.66926991 8.15135809 30.4336927 14.80507698 45 17 C45.68964844 17.10957031 46.37929688 17.21914063 47.08984375 17.33203125 C69.57198905 20.21435757 93.87011732 16.95848526 114.65625 7.83398438 C117 7 117 7 120 8 C106.57708829 55.60603295 92.95533545 103.21273467 75.14634705 149.40063477 C73.47845444 153.72800365 71.8615879 158.07013266 70.26953125 162.42578125 C69.85123047 163.5655542 69.43292969 164.70532715 69.00195312 165.87963867 C68.23461656 167.9732768 67.47129387 170.06839252 66.71289062 172.1652832 C66.38095703 173.06206787 66.04902344 173.95885254 65.70703125 174.8828125 C65.4231958 175.66027832 65.13936035 176.43774414 64.84692383 177.23876953 C64 179 64 179 62 180 C55.87607149 164.30125554 49.95644456 148.53613466 44.15621948 132.71554565 C40.32261007 122.26021214 36.4268701 111.8345524 32.4375 101.4375 C21.01054384 71.50754286 10.63410785 41.21563082 1.9375 10.375 C1.73318359 9.65223877 1.52886719 8.92947754 1.31835938 8.18481445 C0.54267245 5.3547473 0 2.95076678 0 0 Z " fill="#FDFAF5" transform="translate(369,868)"/>
<path d="M0 0 C29.205 0.495 29.205 0.495 59 1 C57.41354853 9.72548311 55.52806634 17.96302266 53.0625 26.4375 C52.86847595 27.10652344 52.6744519 27.77554688 52.47454834 28.46484375 C39.58528794 72.56578362 17.58889917 123.20248567 -17 155 C-19.2890625 155.796875 -19.2890625 155.796875 -21 156 C-21.33 157.32 -21.66 158.64 -22 160 C-22.10957031 159.05640625 -22.21914063 158.1128125 -22.33203125 157.140625 C-24.88202342 136.49190795 -30.65772166 117.00764423 -47.4375 103.4375 C-48.9502213 102.28097835 -50.46819866 101.13112896 -52 100 C-50.58243709 96.28946987 -48.92784522 92.79570779 -47.09375 89.2734375 C-46.52011719 88.16935547 -45.94648437 87.06527344 -45.35546875 85.92773438 C-44.73705203 84.74345153 -44.11856072 83.55920764 -43.5 82.375 C-42.86051559 81.14656843 -42.22119421 79.91805198 -41.58203125 78.68945312 C-37.68641059 71.20681245 -33.76754117 63.73646407 -29.82568359 56.27807617 C-27.42637418 51.73199071 -25.05233889 47.17363599 -22.6953125 42.60546875 C-22.10492187 41.46207031 -21.51453125 40.31867187 -20.90625 39.140625 C-19.77643017 36.95036025 -18.64858626 34.75907421 -17.5234375 32.56640625 C-11.86572495 21.6012205 -5.91490473 10.843992 0 0 Z " fill="#DCF2FE" transform="translate(823,841)"/>
<path d="M0 0 C37.29 0 74.58 0 113 0 C111.59145276 3.52136809 110.20714513 6.62850859 108.41796875 9.9296875 C107.64839844 11.3518457 107.64839844 11.3518457 106.86328125 12.80273438 C106.31027344 13.81658203 105.75726562 14.83042969 105.1875 15.875 C104.61 16.93783203 104.0325 18.00066406 103.4375 19.09570312 C99.00485304 27.22542765 94.46555292 35.29123796 89.88427734 43.33789062 C85.9309401 50.29995187 82.10172702 57.3224708 78.3125 64.375 C73.10647451 74.06048284 67.6702408 83.57946449 62 93 C59.72819085 90.72819085 59.41842417 89.49907226 58.58984375 86.44140625 C58.3271167 85.50756104 58.06438965 84.57371582 57.79370117 83.61157227 C57.51115479 82.60537842 57.2286084 81.59918457 56.9375 80.5625 C47.74458901 49.27832427 29.94907998 22.07528678 3.0859375 3.2265625 C2.06757812 2.49179687 1.04921875 1.75703125 0 1 C0 0.67 0 0.34 0 0 Z " fill="#DCF0FB" transform="translate(668,840)"/>
<path d="M0 0 C1.43279306 0.0353854 2.8655626 0.07173342 4.29830933 0.10894775 C5.81641452 0.11177036 7.33453335 0.11018148 8.85263062 0.10452271 C12.9649164 0.10165734 17.07427573 0.16037137 21.18588209 0.23026228 C25.48587094 0.29284817 29.78592968 0.29865502 34.08630371 0.31051636 C42.22533923 0.34157742 50.36302885 0.42360784 58.50147212 0.52401125 C67.76847531 0.63585163 77.03554337 0.69078375 86.30305362 0.7409656 C105.36294443 0.84544494 124.42158307 1.02129419 143.48043823 1.24420166 C142.19983805 5.43181829 140.61696909 9.06476545 138.44137573 12.86138916 C137.86129761 13.87974854 137.28121948 14.89810791 136.68356323 15.94732666 C136.08028198 16.99404541 135.47700073 18.04076416 134.85543823 19.11920166 C134.24442261 20.18912354 133.63340698 21.25904541 133.00387573 22.36138916 C131.50080714 24.99175921 129.99287538 27.61921092 128.48043823 30.24420166 C110.3209065 30.3613102 92.16147358 30.44932397 74.00164509 30.50326252 C65.56858463 30.52897943 57.13575962 30.5640043 48.70285034 30.62139893 C41.34764363 30.67143456 33.99260754 30.70353994 26.63723534 30.71464413 C22.74712655 30.72112906 18.8575056 30.7362318 14.96755409 30.77285194 C11.29600406 30.8071316 7.6251365 30.81719143 3.95344162 30.80974007 C1.98418658 30.81174262 0.01500356 30.83846878 -1.95405579 30.86630249 C-10.71022617 30.81632686 -17.57432653 28.89511581 -25.51956177 25.24420166 C-23.58292778 21.2633429 -21.16027765 17.84904332 -18.56643677 14.26763916 C-16.50207647 11.44420186 -16.50207647 11.44420186 -15.52811241 8.80135536 C-11.98194707 0.96356209 -8.32434618 0.0877526 0 0 Z " fill="#686E70" transform="translate(659.5195617675781,797.7557983398438)"/>
<path d="M0 0 C0.33 0 0.66 0 1 0 C2.21996362 4.76234059 2.14431953 9.40945063 2.1328125 14.2890625 C2.13376923 15.18813324 2.13472595 16.08720398 2.13571167 17.01351929 C2.13639101 18.91477529 2.13455391 20.81603363 2.13037109 22.71728516 C2.12505702 25.59413015 2.13030494 28.47081633 2.13671875 31.34765625 C2.13605719 33.20312534 2.13477443 35.05859433 2.1328125 36.9140625 C2.13483673 37.76030182 2.13686096 38.60654114 2.13894653 39.47842407 C2.1149262 45.75678749 1.57404321 51.68552474 1 58 C-35.63 58 -72.26 58 -110 58 C-108.68 53.05 -107.36 48.1 -106 43 C-105.37288763 40.38530482 -104.76172433 37.76658498 -104.18359375 35.140625 C-104.04099625 34.49986023 -103.89839874 33.85909546 -103.7514801 33.19891357 C-103.3105045 31.21658807 -102.87350098 29.23342503 -102.4375 27.25 C-100.49788203 18.43942252 -98.484075 9.6767052 -96 1 C-95.34 1 -94.68 1 -94 1 C-93.525625 2.155 -93.05125 3.31 -92.5625 4.5 C-88.40496984 12.60001565 -82.1660287 17.0352191 -73.625 19.875 C-56.01859146 25.36022096 -34.31411964 27.45903109 -17 20 C-8.17391493 14.9595869 -2.81825174 9.8638811 0 0 Z " fill="#455D75" transform="translate(761,1140)"/>
<path d="M0 0 C3 0.5625 3 0.5625 4.69921875 2.11328125 C6.52433029 5.54975253 6.14676434 8.55823163 5.8125 12.3125 C5.75642578 13.08166748 5.70035156 13.85083496 5.64257812 14.64331055 C5.4447896 17.28456804 5.22188911 19.9231633 5 22.5625 C4.83622345 24.67830701 4.67350307 26.79419598 4.51171875 28.91015625 C4.18324946 33.09318914 3.85256678 37.27595522 3.5 41.45703125 C3.4278125 42.32175049 3.355625 43.18646973 3.28125 44.07739258 C3 46.5625 3 46.5625 2.50708008 48.92431641 C1.87003715 52.2386572 1.63367189 55.51267734 1.38671875 58.87890625 C1.27455976 60.36021219 1.16207742 61.84149367 1.04931641 63.32275391 C0.99076477 64.10305969 0.93221313 64.88336548 0.87188721 65.68731689 C-0.13892025 79.05065316 -1.33731939 92.37454808 -2.875 105.6875 C-4.53071367 120.04886364 -5.98957403 134.42258603 -7.375 148.8125 C-9.4232093 170.05193955 -11.64290857 191.27001946 -13.94482422 212.48339844 C-15.35720339 225.5042089 -16.72298515 238.52769851 -18 251.5625 C-18.34991602 255.12544831 -18.70286211 258.68802127 -19.0625 262.25 C-19.14048828 263.05759766 -19.21847656 263.86519531 -19.29882812 264.69726562 C-19.88609463 270.44859463 -19.88609463 270.44859463 -21 271.5625 C-22.49738124 271.6604057 -23.99942892 271.69224864 -25.5 271.6875 C-26.3146875 271.69007813 -27.129375 271.69265625 -27.96875 271.6953125 C-30 271.5625 -30 271.5625 -31 270.5625 C-31.82494224 256.17937641 -30.15171097 241.905307 -28.625 227.625 C-28.40020468 225.45907108 -28.17624284 223.29305549 -27.953125 221.12695312 C-27.41198419 215.89305291 -26.86019434 210.66035127 -26.30392456 205.42803955 C-26.0237845 202.78675114 -25.74653762 200.14518444 -25.47094727 197.50341797 C-24.63328889 189.47874861 -23.77326426 181.45692077 -22.88671875 173.4375 C-20.39939899 150.92218323 -18.06347761 128.39716931 -15.88012695 105.8503418 C-14.22878801 88.80633559 -12.50487425 71.77052572 -10.73876953 54.73803711 C-9.80335872 45.68304135 -8.89619361 36.62920279 -8.125 27.55859375 C-8.05914703 26.79803177 -7.99329407 26.03746979 -7.92544556 25.25386047 C-7.62651138 21.79806478 -7.33921274 18.34279953 -7.07568359 14.8840332 C-6.97594238 13.7105835 -6.87620117 12.53713379 -6.7734375 11.328125 C-6.69528809 10.32555664 -6.61713867 9.32298828 -6.53662109 8.29003906 C-5.66455363 3.85749235 -4.62751223 0.86765854 0 0 Z " fill="#37322D" transform="translate(648,927.4375)"/>
<path d="M0 0 C2.64 0 5.28 0 8 0 C8.33 0.66 8.66 1.32 9 2 C8.34 2 7.68 2 7 2 C7 3.32 7 4.64 7 6 C7.66 6 8.32 6 9 6 C10.45535581 8.91071162 10.16265421 11.48493654 10.2019043 14.73754883 C10.2120585 15.43897633 10.2222127 16.14040382 10.2326746 16.8630867 C10.2548667 18.40630341 10.2750674 19.94954968 10.29357147 21.49281502 C10.34704783 25.79261966 10.42186235 30.0920746 10.49389648 34.39160156 C10.50900583 35.31174073 10.52411518 36.2318799 10.53968239 37.17990208 C11.1361541 73.10230037 12.54474199 108.90165404 14.9375 144.75 C15.00149868 145.71653629 15.06549736 146.68307259 15.13143539 147.67889786 C16.63308635 170.33876022 18.34936854 192.9737771 20.35375977 215.59472656 C21.30180429 226.35921889 22.15883102 237.00119547 22.0625 247.8125 C22.05798828 248.80314453 22.05347656 249.79378906 22.04882812 250.81445312 C22.03725686 253.20970461 22.0209623 255.60481558 22 258 C19.26094655 259.36952673 17.02912668 259.12621361 14 259 C12 258 12 258 10.90625 255.51171875 C9.80074438 251.22788447 9.6180578 247.21883363 9.5 242.8125 C9.31410793 236.30081011 8.80462719 229.8740271 8.08984375 223.40234375 C6.78835946 211.54024835 5.92479691 199.65082116 5.0625 187.75 C4.97729095 186.58269348 4.89208191 185.41538696 4.80429077 184.21270752 C4.19159132 175.80926002 3.59212402 167.40492062 3 159 C2.92289795 157.90868774 2.8457959 156.81737549 2.76635742 155.69299316 C0.07902362 117.53314426 -1.07887278 79.6196166 -1.12204361 41.37187576 C-1.12499414 38.94232233 -1.12916071 36.51277293 -1.13339233 34.08322144 C-1.13929047 30.22843593 -1.13921841 26.37369236 -1.13450813 22.51890564 C-1.13338402 21.07430556 -1.13389811 19.6297032 -1.13610649 18.18510437 C-1.13865697 16.18842608 -1.13420129 14.1917425 -1.12939453 12.19506836 C-1.12859894 11.06677109 -1.12780334 9.93847382 -1.12698364 8.77598572 C-1 6 -1 6 0 3 C0 2.01 0 1.02 0 0 Z " fill="#37322C" transform="translate(206,940)"/>
<path d="M0 0 C2.29586885 1.11090428 3.52721415 1.78495844 4.9375 3.9375 C4.52606033 8.20539105 3.41166774 11.44713083 1.41796875 15.21875 C0.89662354 16.21374512 0.37527832 17.20874023 -0.16186523 18.23388672 C-1.00986694 19.81967529 -1.00986694 19.81967529 -1.875 21.4375 C-2.75297241 23.10256592 -2.75297241 23.10256592 -3.64868164 24.80126953 C-7.84567194 32.73388087 -12.13869445 40.61324614 -16.46557617 48.47558594 C-20.49252741 55.81888873 -24.35292205 63.24223464 -28.1875 70.6875 C-32.39512724 78.85200263 -36.67246738 86.95592461 -41.17333984 94.9621582 C-44.96649583 101.72343967 -48.65060415 108.54187641 -52.3125 115.375 C-52.63126099 115.96975128 -52.95002197 116.56450256 -53.27844238 117.17727661 C-58.60853974 127.13334094 -63.8165667 137.14992413 -68.98974609 147.18847656 C-73.18342966 155.30397566 -77.52124928 163.33067026 -81.9284668 171.33178711 C-85.26045025 177.40263496 -88.44552827 183.52871591 -91.47802734 189.75463867 C-93.51364632 193.92289286 -95.72940055 197.93132265 -98.0625 201.9375 C-103.3425 201.9375 -108.6225 201.9375 -114.0625 201.9375 C-112.56530602 197.44591807 -111.20704948 194.11185335 -108.9375 190.078125 C-108.009375 188.41910156 -108.009375 188.41910156 -107.0625 186.7265625 C-106.39589946 185.54683763 -105.72923127 184.36715099 -105.0625 183.1875 C-104.37448021 181.96122899 -103.68698479 180.73466364 -103 179.5078125 C-101.63909793 177.07873251 -100.27578203 174.65103673 -98.91015625 172.22460938 C-96.61262635 168.13714339 -94.33511403 164.03885051 -92.0625 159.9375 C-91.27362209 158.51682457 -90.48455352 157.09625499 -89.6953125 155.67578125 C-89.2818457 154.93150879 -88.86837891 154.18723633 -88.44238281 153.42041016 C-86.85550769 150.56504568 -85.26759148 147.71026119 -83.6796875 144.85546875 C-79.80332535 137.88501151 -75.93076584 130.91245289 -72.0625 123.9375 C-71.73082825 123.33945557 -71.39915649 122.74141113 -71.05743408 122.12524414 C-62.92254059 107.45332098 -54.85801994 92.74824549 -46.92504883 77.96582031 C-42.95267454 70.57012218 -38.91410295 63.21571098 -34.8203125 55.88671875 C-31.56411684 50.05445018 -28.34291237 44.20289432 -25.11871338 38.35290527 C-24.07078899 36.45253179 -23.02168219 34.55281618 -21.97216797 32.65332031 C-18.94997421 27.18235267 -15.93296903 21.7090542 -12.953125 16.21484375 C-12.499375 15.38339844 -12.045625 14.55195312 -11.578125 13.6953125 C-10.7651713 12.20489737 -9.95742082 10.71162573 -9.15625 9.21484375 C-4.04293548 -0.1225132 -4.04293548 -0.1225132 0 0 Z " fill="#686E71" transform="translate(859.0625,731.0625)"/>
<path d="M0 0 C3.07124443 2.34210007 3.49146319 6.44439555 4.1217041 10.10264587 C4.23558472 11.09220779 4.34946533 12.08176971 4.46679688 13.10131836 C4.60033569 14.23367416 4.73387451 15.36602997 4.87145996 16.53269958 C5.07623962 18.35149376 5.07623962 18.35149376 5.28515625 20.20703125 C5.43295532 21.47253311 5.58075439 22.73803497 5.73303223 24.04188538 C6.12474945 27.40410331 6.51109174 30.7668462 6.89459229 34.13000488 C7.43162707 38.82776527 7.97882583 43.52435414 8.52478027 48.22108459 C8.81398668 50.71420894 9.10131274 53.20755246 9.38635254 55.70115662 C9.94623199 60.56765333 10.51062388 65.43127586 11.17700195 70.28445435 C11.26928322 70.95741578 11.36156448 71.63037722 11.45664215 72.32373142 C11.71743113 74.20647299 11.98337565 76.08849834 12.24963379 77.97047424 C12.57440088 80.77200851 12.70520592 83.42739034 12.62890625 86.2421875 C9.57224016 87.77052055 6.92201573 87.87175255 3.62890625 87.2421875 C-10.19546274 81.038945 -18.98712648 68.47267996 -24.5625 54.6953125 C-27.74968914 45.02596574 -28.69230921 35.54726711 -28.87109375 25.4296875 C-28.90170898 24.47562012 -28.93232422 23.52155273 -28.96386719 22.53857422 C-28.96649237 14.9688701 -27.0780599 8.1975792 -21.78637695 2.55126953 C-14.97673108 -3.27608622 -8.1834509 -2.6782203 0 0 Z " fill="#FCC19B" transform="translate(266.37109375,529.7578125)"/>
<path d="M0 0 C6.92916875 3.96819296 9.70962764 9.59834469 12 17 C12.495 18.485 12.495 18.485 13 20 C14.28054196 40.6985962 10.55551456 60.73919775 -2.875 77.1875 C-7.32275724 81.74885418 -12.76546979 85.42633815 -19.19140625 86.296875 C-21.125 86.3125 -21.125 86.3125 -24 86 C-25.31297323 82.25260366 -24.74934206 79.24643171 -24.109375 75.375 C-23.8935096 74.02865306 -23.67769133 72.68229857 -23.46191406 71.3359375 C-23.34561646 70.62920898 -23.22931885 69.92248047 -23.10949707 69.19433594 C-21.19267758 57.49425202 -19.50056535 45.79151054 -18.25 34 C-18.1277002 32.8553125 -18.00540039 31.710625 -17.87939453 30.53125 C-17.3736247 25.56207959 -16.94475362 20.61764126 -16.7734375 15.625 C-16.74475586 14.8309375 -16.71607422 14.036875 -16.68652344 13.21875 C-16.63021533 11.18808311 -16.61384926 9.15641026 -16.6015625 7.125 C-16 4 -16 4 -13.5859375 1.625 C-8.76465278 -1.40468949 -5.50503011 -1.53649166 0 0 Z " fill="#FCC19B" transform="translate(623,530)"/>
<path d="M0 0 C4.8881011 3.05863636 9.17775412 7.77544985 11.00390625 13.25390625 C11.7441887 23.37514504 11.62587002 31.54115903 5.05078125 39.66796875 C2.75914735 42.25607277 0.39165702 44.75447037 -1.99609375 47.25390625 C-3.47977114 48.91655871 -4.95898482 50.58320571 -6.43359375 52.25390625 C-9.61841849 55.79760546 -12.90253012 59.20728127 -16.28125 62.56640625 C-17.61168335 63.89091797 -17.61168335 63.89091797 -18.96899414 65.2421875 C-19.97240845 66.23798828 -19.97240845 66.23798828 -20.99609375 67.25390625 C-19.6188916 67.2679248 -19.6188916 67.2679248 -18.21386719 67.28222656 C-14.79904097 67.32630556 -11.38546267 67.38794357 -7.97119141 67.46142578 C-6.49507179 67.48960713 -5.01880206 67.51083591 -3.54248047 67.52490234 C-1.41686318 67.54637323 0.70695504 67.59303668 2.83203125 67.64453125 C4.10981445 67.66547852 5.38759766 67.68642578 6.70410156 67.70800781 C10.51358284 68.33822386 11.71997432 69.19786161 14.00390625 72.25390625 C14.63261177 75.39743387 14.37147828 76.68705054 12.62866211 79.37475586 C8.51785963 82.31781666 4.44428693 81.84500076 -0.4921875 81.8203125 C-1.51788345 81.82651108 -2.54357941 81.83270966 -3.60035706 81.83909607 C-5.76814831 81.84619554 -7.93599407 81.84301805 -10.10375977 81.83032227 C-13.41850335 81.81646932 -16.7304173 81.85051187 -20.04492188 81.88867188 C-22.15234444 81.8896232 -24.25977054 81.88776354 -26.3671875 81.8828125 C-27.35690048 81.89607071 -28.34661346 81.90932892 -29.36631775 81.92298889 C-34.04650633 81.85975923 -36.2938146 81.77171551 -40.15063477 78.92797852 C-41.99609375 76.25390625 -41.99609375 76.25390625 -42.15234375 72.83984375 C-40.7283505 68.42354036 -38.73361515 66.10064208 -35.49609375 62.87890625 C-34.68458862 62.03646362 -34.68458862 62.03646362 -33.85668945 61.17700195 C-32.25224382 59.5194933 -30.62879802 57.88353864 -28.99609375 56.25390625 C-28.15433594 55.40957031 -27.31257812 54.56523438 -26.4453125 53.6953125 C-24.97010138 52.2251971 -23.49235157 50.75762351 -22.01171875 49.29296875 C-9.28543085 37.09786345 -9.28543085 37.09786345 -3.62109375 21.37890625 C-3.68581424 17.68983842 -3.91463674 16.38966794 -5.87109375 13.12890625 C-10.31266518 10.46396339 -13.95353974 10.00854821 -18.99609375 11.25390625 C-22.07173089 13.23899885 -24.5263084 15.56487103 -26.99609375 18.25390625 C-27.99609375 19.25390625 -27.99609375 19.25390625 -31.37109375 19.50390625 C-34.99609375 19.25390625 -34.99609375 19.25390625 -36.93359375 18.12890625 C-38.50318523 15.35903893 -38.31323077 13.39820377 -37.99609375 10.25390625 C-29.30228008 -2.10668598 -13.99636384 -5.49762299 0 0 Z " fill="#FBFCFC" transform="translate(714.99609375,568.74609375)"/>
<path d="M0 0 C5.36759871 4.42037541 8.46440253 10.00969034 9.33203125 16.8515625 C9.74257237 26.32558837 6.6348718 34.12108352 0.32983398 41.20141602 C-1.56035882 43.22381325 -3.4927569 45.20049146 -5.44335938 47.16455078 C-7.9756394 49.75213158 -10.38784874 52.44831021 -12.81640625 55.1328125 C-16.10965062 58.74555073 -19.47648862 62.24736207 -22.94140625 65.6953125 C-21.5642041 65.70933105 -21.5642041 65.70933105 -20.15917969 65.72363281 C-16.74435347 65.76771181 -13.33077517 65.82934982 -9.91650391 65.90283203 C-8.44038429 65.93101338 -6.96411456 65.95224216 -5.48779297 65.96630859 C-3.36217568 65.98777948 -1.23835746 66.03444293 0.88671875 66.0859375 C2.16450195 66.10688477 3.44228516 66.12783203 4.75878906 66.14941406 C8.56749757 66.77950227 9.82189702 67.59152629 12.05859375 70.6953125 C12.05859375 73.7578125 12.05859375 73.7578125 11.05859375 76.6953125 C8.21888085 79.35121778 6.29969107 80.07194232 2.4453125 80.08349609 C1.5375708 80.09295258 0.6298291 80.10240906 -0.30541992 80.1121521 C-1.76492065 80.10304306 -1.76492065 80.10304306 -3.25390625 80.09375 C-4.76271362 80.09805527 -4.76271362 80.09805527 -6.30200195 80.10244751 C-8.42692631 80.10448738 -10.55186947 80.09896294 -12.67675781 80.08642578 C-15.92946354 80.07037145 -19.18092667 80.08627752 -22.43359375 80.10546875 C-24.49870066 80.10348631 -26.5638068 80.0996426 -28.62890625 80.09375 C-29.60190674 80.09982269 -30.57490723 80.10589539 -31.57739258 80.1121521 C-32.48513428 80.10269562 -33.39287598 80.09323914 -34.328125 80.08349609 C-35.52248169 80.07991592 -35.52248169 80.07991592 -36.7409668 80.07626343 C-39.4988298 79.59880859 -40.89082467 78.56783663 -42.94140625 76.6953125 C-43.93804801 73.59876796 -43.69233159 70.83757748 -42.94140625 67.6953125 C-41.01869795 64.56945932 -38.57985388 62.1646656 -35.94140625 59.6328125 C-35.25095215 58.93454346 -34.56049805 58.23627441 -33.84912109 57.5168457 C-31.90058796 55.55384668 -29.92740957 53.62029038 -27.94140625 51.6953125 C-26.48191518 50.25898796 -25.02325238 48.8218197 -23.56640625 47.3828125 C-22.97730469 46.80402344 -22.38820313 46.22523438 -21.78125 45.62890625 C-17.90072915 41.55065186 -14.42146578 37.11574315 -10.94140625 32.6953125 C-10.38066406 31.98890625 -9.81992187 31.2825 -9.2421875 30.5546875 C-5.97839597 25.88932783 -6.27314712 20.14480657 -6.94140625 14.6953125 C-8.58852312 11.29807596 -8.58852312 11.29807596 -11.94140625 9.6953125 C-15.48013706 8.86374111 -18.40660089 8.82232269 -21.94140625 9.6953125 C-25.01704339 11.6804051 -27.4716209 14.00627728 -29.94140625 16.6953125 C-30.94140625 17.6953125 -30.94140625 17.6953125 -34.31640625 17.9453125 C-37.94140625 17.6953125 -37.94140625 17.6953125 -39.87890625 16.5703125 C-41.44731978 13.80252392 -41.25445435 11.83738791 -40.94140625 8.6953125 C-37.49513789 3.6934369 -32.37902994 -1.20482691 -26.4296875 -2.93359375 C-17.43977765 -4.27431814 -8.06439559 -4.75976131 0 0 Z " fill="#FBFBFB" transform="translate(845.94140625,570.3046875)"/>
<path d="M0 0 C1.97142799 1.30978435 3.7585621 2.78380654 5.59765625 4.2734375 C16.94961072 12.43207795 28.81130403 14.33923484 42.375 14.25 C43.54289062 14.25773438 44.71078125 14.26546875 45.9140625 14.2734375 C55.98113281 14.25086559 64.45852324 13.21715351 73.4375 8.5625 C74.61183594 7.96566406 75.78617187 7.36882813 76.99609375 6.75390625 C79.50462013 5.28924 81.01351509 4.02293418 83 2 C86.14924548 1.60634432 88.11909116 1.47145469 90.875 3.125 C92.52460233 5.87433722 92.31077259 7.84113435 92 11 C84.55697752 21.16294181 70.34176586 25.55352227 58.46826172 27.67480469 C35.6018879 30.6874664 13.01714387 26.59960088 -5.73046875 12.71875 C-8.22436493 10.53921049 -8.97389582 9.16315114 -9.5 5.875 C-9 3 -9 3 -7.875 1.125 C-4.94116588 -0.63530047 -3.39077439 -0.57579188 0 0 Z " fill="#342F2B" transform="translate(402,654)"/>
<path d="M0 0 C3.5 0.4375 3.5 0.4375 5.20703125 1.546875 C7.14477192 4.38030849 6.78798841 6.74189004 6.6875 10.125 C6.64689453 11.89423828 6.64689453 11.89423828 6.60546875 13.69921875 C6.57066406 14.60285156 6.53585937 15.50648438 6.5 16.4375 C7.60859375 16.39109375 8.7171875 16.3446875 9.859375 16.296875 C11.32288968 16.25934898 12.78643356 16.22294971 14.25 16.1875 C14.97960937 16.15398438 15.70921875 16.12046875 16.4609375 16.0859375 C20.01472546 16.02132317 22.08442295 16.14240808 25.01953125 18.2265625 C26.5 20.4375 26.5 20.4375 26.4375 24.0625 C25.5 27.4375 25.5 27.4375 22.5 29.4375 C19.73344676 29.57995897 17.07346694 29.62519445 14.3125 29.5625 C13.56291016 29.55347656 12.81332031 29.54445313 12.04101562 29.53515625 C10.19387346 29.51162578 8.34689588 29.47575561 6.5 29.4375 C6.55220703 31.11779297 6.55220703 31.11779297 6.60546875 32.83203125 C6.63360839 34.30467251 6.66090837 35.77732998 6.6875 37.25 C6.71263672 37.98798828 6.73777344 38.72597656 6.76367188 39.48632812 C6.83741363 44.91863735 6.83741363 44.91863735 5.20703125 47.42578125 C2.30257109 49.14718899 -0.22772183 48.78810123 -3.5 48.4375 C-5.20703125 47.42578125 -5.20703125 47.42578125 -6.5 45.4375 C-6.71714241 42.62622957 -6.78284276 40.0491655 -6.6875 37.25 C-6.66719727 36.12561523 -6.66719727 36.12561523 -6.64648438 34.97851562 C-6.61118539 33.13120233 -6.55737917 31.28425934 -6.5 29.4375 C-7.53640625 29.48390625 -8.5728125 29.5303125 -9.640625 29.578125 C-11.01038779 29.61565275 -12.38018182 29.65205184 -13.75 29.6875 C-14.77287109 29.73777344 -14.77287109 29.73777344 -15.81640625 29.7890625 C-19.26314817 29.85598953 -21.15716831 29.68399437 -23.98828125 27.6484375 C-25.5 25.4375 -25.5 25.4375 -25.4375 21.8125 C-24.5 18.4375 -24.5 18.4375 -21.5 16.4375 C-18.89754502 16.29528935 -16.40882316 16.24947068 -13.8125 16.3125 C-12.7596582 16.32603516 -12.7596582 16.32603516 -11.68554688 16.33984375 C-9.95688475 16.36336296 -8.22839855 16.39923287 -6.5 16.4375 C-6.55220703 15.20773437 -6.55220703 15.20773437 -6.60546875 13.953125 C-6.63253906 12.87546875 -6.65960937 11.7978125 -6.6875 10.6875 C-6.73970703 9.08648438 -6.73970703 9.08648438 -6.79296875 7.453125 C-6.31036248 2.4854978 -4.98586881 0.6232336 0 0 Z " fill="#FBFBFB" transform="translate(767.5,588.5625)"/>
<path d="M0 0 C4.19910304 0.57634748 5.52334807 2.24051768 8.1875 5.4375 C9.43333339 7.92916678 9.54332666 10.0378564 9.875 12.8125 C10.7477597 18.92181788 12.40922091 24.51385369 14.3125 30.375 C17.00145041 38.84479484 20.08119501 48.76327125 15.7890625 57.1796875 C12.41218619 61.94025947 8.76261304 63.96781049 3.171875 65.11328125 C0.32446472 65.57850773 -1.93847279 65.8845709 -4.8125 65.4375 C-7.75 63.25 -7.75 63.25 -9.8125 60.4375 C-9.8125 57.53399291 -9.36178906 56.13580755 -7.57421875 53.86328125 C-5.30950421 52.03041915 -3.48197948 51.73234718 -0.625 51.25 C0.27605469 51.09144531 1.17710937 50.93289063 2.10546875 50.76953125 C2.79253906 50.65996094 3.47960937 50.55039062 4.1875 50.4375 C3.88100116 44.00102428 2.69197343 38.3119436 0.8125 32.1875 C-5.3977113 11.91562806 -5.3977113 11.91562806 -4.8125 2.4375 C-2.8125 0.4375 -2.8125 0.4375 0 0 Z " fill="#332E2A" transform="translate(446.8125,558.5625)"/>
<path d="M0 0 C4.81283786 2.45360361 7.36588895 5.31713591 10 10 C12.13267418 17.00938914 11.52996453 23.45508811 8.25390625 29.984375 C5.8272619 33.88514909 3.33123158 36.15227943 -1.10546875 37.765625 C-4.75826997 38.54522457 -7.01058512 38.57842716 -10.28515625 36.6640625 C-15.31947345 32.47945764 -17.70974492 29.07467876 -18.3359375 22.44140625 C-18.34882813 21.16136719 -18.36171875 19.88132812 -18.375 18.5625 C-18.40335937 17.28503906 -18.43171875 16.00757813 -18.4609375 14.69140625 C-17.72631728 8.80821893 -14.39285352 4.82603371 -10 1 C-6.38069302 -0.20643566 -3.80768995 -0.32268559 0 0 Z " fill="#34302C" transform="translate(525,537)"/>
<path d="M0 0 C4.22754879 2.33944426 7.28006959 5.45618385 9 10 C9.73984718 16.98553381 10.08805273 24.27585362 6.328125 30.4453125 C3.06366767 34.26664785 -0.50199959 35.78599994 -5.5 36.5 C-10.4188422 35.79730826 -14.19805692 34.34633677 -17.29296875 30.31640625 C-20.62827253 24.71743059 -21.83710394 19.49639821 -21 13 C-17.7228699 2.83153346 -10.70759247 -2.21910974 0 0 Z " fill="#342F2B" transform="translate(373,537)"/>
<path d="M0 0 C2.61860912 1.85660228 4.72239133 3.72239133 7 6 C6.25 10.75 6.25 10.75 4 13 C-1.51520095 13.56086789 -4.12340908 13.12599433 -8.875 10.15625 C-17.51502391 5.45506052 -26.55772743 4.64147523 -36.1875 4.625 C-37.10869629 4.62338867 -38.02989258 4.62177734 -38.97900391 4.62011719 C-44.29941631 4.62465126 -44.29941631 4.62465126 -49 7 C-51.80590236 7.42783066 -54.1233315 7.22830702 -57 7 C-59.178657 3.73201451 -59.72208564 2.79094962 -59 -1 C-44.30150837 -16.43341621 -16.38097724 -8.73512469 0 0 Z " fill="#332E2B" transform="translate(554,495)"/>
<path d="M0 0 C1.44921875 1.18359375 1.44921875 1.18359375 3.13671875 3.93359375 C3.07421875 7.68359375 3.07421875 7.68359375 2.13671875 10.93359375 C-2.81139352 13.40764989 -7.87529108 11.42123994 -12.86328125 9.93359375 C-24.8780737 7.48159529 -37.61138843 7.6721874 -48.05078125 14.55859375 C-48.68757813 14.98398437 -49.324375 15.409375 -49.98046875 15.84765625 C-52.92300584 17.5448042 -55.50237943 17.93359375 -58.86328125 17.93359375 C-60.80078125 16.87109375 -60.80078125 16.87109375 -61.86328125 14.93359375 C-62.42578125 12.05859375 -62.42578125 12.05859375 -61.86328125 8.93359375 C-57.60716438 4.79570234 -53.2421181 2.44954728 -47.80078125 0.18359375 C-46.75954102 -0.27080078 -46.75954102 -0.27080078 -45.69726562 -0.734375 C-32.89760324 -6.20431619 -12.33250782 -7.05822774 0 0 Z " fill="#312D2A" transform="translate(395.86328125,489.06640625)"/>
<path d="M0 0 C4 2 4 2 5.875 3.0625 C8.54074552 4.2385642 11.12431827 4.60786158 14 5 C13.5875 6.216875 13.175 7.43375 12.75 8.6875 C11.04249299 13.78574369 9.49783082 18.92897833 7.96484375 24.08203125 C7.14946161 26.54798452 6.23905919 28.72563802 5 31 C-0.19327123 25.1234036 -2.28507896 21.13942983 -2.25 13.0625 C-2.25515625 11.87785156 -2.2603125 10.69320313 -2.265625 9.47265625 C-1.99993706 5.99917717 -1.24620553 3.23914532 0 0 Z " fill="#F8C8A0" transform="translate(664,1074)"/>
<path d="M0 0 C3.46998948 1.97970175 6.93695724 3.9635092 10.39453125 5.96484375 C17.16283533 9.87112211 23.94817629 13.62032412 31 17 C28 18 28 18 25.8269043 17.16723633 C25.00101807 16.72661865 24.17513184 16.28600098 23.32421875 15.83203125 C22.41349609 15.35056641 21.50277344 14.86910156 20.56445312 14.37304688 C19.61505859 13.85806641 18.66566406 13.34308594 17.6875 12.8125 C16.74970703 12.31685547 15.81191406 11.82121094 14.84570312 11.31054688 C10.05726799 8.7560399 5.44293889 6.11824354 1 3 C1.00523682 3.63502441 1.01047363 4.27004883 1.01586914 4.92431641 C1.03676256 7.82453405 1.04969934 10.7247358 1.0625 13.625 C1.07087891 14.62402344 1.07925781 15.62304688 1.08789062 16.65234375 C1.1041087 21.55020275 1.04318537 26.18656199 0 31 C-0.33 31 -0.66 31 -1 31 C-1.02465622 26.74585377 -1.04283899 22.49174502 -1.05493164 18.23754883 C-1.05997101 16.78929927 -1.06680253 15.34105483 -1.07543945 13.89282227 C-1.08752247 11.81525412 -1.09323211 9.73775303 -1.09765625 7.66015625 C-1.10289307 6.40855713 -1.10812988 5.15695801 -1.11352539 3.86743164 C-1 1 -1 1 0 0 Z " fill="#2A2524" transform="translate(354,732)"/>
<path d="M0 0 C0 3 0 3 -2.1875 5.48046875 C-3.115625 6.37378906 -4.04375 7.26710938 -5 8.1875 C-5.928125 9.08855469 -6.85625 9.98960937 -7.8125 10.91796875 C-8.534375 11.60503906 -9.25625 12.29210937 -10 13 C-8.89543457 13.029729 -8.89543457 13.029729 -7.76855469 13.06005859 C-4.42867944 13.15537828 -1.08942361 13.26502996 2.25 13.375 C3.40886719 13.4059375 4.56773437 13.436875 5.76171875 13.46875 C7.43427734 13.52675781 7.43427734 13.52675781 9.140625 13.5859375 C10.16704102 13.6173584 11.19345703 13.6487793 12.25097656 13.68115234 C14.96867073 13.99636625 16.66924435 14.61032351 19 16 C16.02598664 17.48700668 13.05181074 17.00619932 9.8046875 16.87890625 C8.74352219 16.84348976 8.74352219 16.84348976 7.66091919 16.80735779 C5.39874245 16.73071166 3.13690727 16.64669188 0.875 16.5625 C-0.6575353 16.50928023 -2.19008734 16.45653982 -3.72265625 16.40429688 C-7.48198761 16.27509533 -11.24102908 16.13927963 -15 16 C-11.5191826 11.8586167 -7.98304674 7.86209149 -4.125 4.0625 C-3.34382812 3.29035156 -2.56265625 2.51820313 -1.7578125 1.72265625 C-1.17773438 1.15417969 -0.59765625 0.58570313 0 0 Z " fill="#334654" transform="translate(708,621)"/>
<path d="M0 0 C-4.31359795 9.98817066 -14.8030272 18.1258816 -23 25 C-23.33 24.01 -23.66 23.02 -24 22 C-20.90984779 18.86050859 -17.81325304 15.72756243 -14.71044922 12.60058594 C-13.65525491 11.5353174 -12.60186036 10.46826303 -11.55029297 9.39941406 C-10.04080273 7.86573784 -8.52501301 6.33854432 -7.0078125 4.8125 C-6.09660645 3.89082031 -5.18540039 2.96914063 -4.24658203 2.01953125 C-2 0 -2 0 0 0 Z " fill="#272320" transform="translate(297,320)"/>
<path d="M0 0 C0.33 0 0.66 0 1 0 C2.37340976 5.83476525 2.18603052 11.6375858 2.18530273 17.60253906 C2.18750094 19.62586142 2.20572134 21.64864806 2.22460938 23.671875 C2.22750977 25.58613281 2.22750977 25.58613281 2.23046875 27.5390625 C2.23457764 28.70646973 2.23868652 29.87387695 2.24291992 31.07666016 C2 34 2 34 0 37 C0.00523682 36.3294458 0.01047363 35.6588916 0.01586914 34.96801758 C0.03671605 31.916188 0.04968469 28.86437344 0.0625 25.8125 C0.07087891 24.75740234 0.07925781 23.70230469 0.08789062 22.61523438 C0.09111328 21.59365234 0.09433594 20.57207031 0.09765625 19.51953125 C0.10289307 18.58214111 0.10812988 17.64475098 0.11352539 16.67895508 C0.00082657 14.01950523 -0.40623351 11.59079427 -1 9 C-1.99 9.66 -2.98 10.32 -4 11 C-3.71125 10.29875 -3.4225 9.5975 -3.125 8.875 C-1.97866412 5.94547497 -0.97374346 2.99078347 0 0 Z " fill="#46627E" transform="translate(761,1140)"/>
<path d="M0 0 C0.33 0 0.66 0 1 0 C1.28739182 7.10496433 0.79704646 14.06475116 0.0625 21.125 C-0.02435059 21.97876221 -0.11120117 22.83252441 -0.20068359 23.7121582 C-0.87300155 29.87300155 -0.87300155 29.87300155 -2 31 C-3.51928038 31.07179964 -5.04167482 31.08392007 -6.5625 31.0625 C-7.38878906 31.05347656 -8.21507812 31.04445313 -9.06640625 31.03515625 C-10.02353516 31.01775391 -10.02353516 31.01775391 -11 31 C-11.33 30.34 -11.66 29.68 -12 29 C-9.03 29 -6.06 29 -3 29 C-2.01 19.43 -1.02 9.86 0 0 Z " fill="#2D261F" transform="translate(629,1168)"/>
<path d="M0 0 C0 0.99 0 1.98 0 3 C-1.98 4.98 -3.96 6.96 -6 9 C2.25 9.33 10.5 9.66 19 10 C19 10.33 19 10.66 19 11 C9.1 11.33 -0.8 11.66 -11 12 C-7.37613 7.77215167 -3.95773294 3.84132903 0 0 Z " fill="#2B3F4D" transform="translate(833,625)"/>
<path d="M0 0 C0.99 0.33 1.98 0.66 3 1 C3.0868329 4.458176 3.14033282 7.91607344 3.1875 11.375 C3.22520508 12.85226562 3.22520508 12.85226562 3.26367188 14.359375 C3.27333984 15.30039062 3.28300781 16.24140625 3.29296875 17.2109375 C3.3086792 18.08024902 3.32438965 18.94956055 3.34057617 19.84521484 C3.22818604 20.55629395 3.1157959 21.26737305 3 22 C2.01 22.66 1.02 23.32 0 24 C0 16.08 0 8.16 0 0 Z " fill="#3E3934" transform="translate(799,1000)"/>
<path d="M0 0 C1.23547838 3.70643513 0.57356275 4.64601382 -0.875 8.1875 C-2.18763421 11.58780501 -3.24245195 14.61567664 -3.5625 18.25 C-4.05178057 22.44383342 -5.18980405 25.22219976 -7 29 C-7.33 29 -7.66 29 -8 29 C-7.74908116 21.22151608 -5.80562996 5.80562996 0 0 Z " fill="#23211F" transform="translate(229,419)"/>
<path d="M0 0 C0.33 0 0.66 0 1 0 C1.33 11.88 1.66 23.76 2 36 C-1 33 -1 33 -1.2487793 29.63012695 C-1.20643677 28.24893499 -1.14719985 26.86819353 -1.07421875 25.48828125 C-1.04777786 24.76005661 -1.02133698 24.03183197 -0.99409485 23.28153992 C-0.90638495 20.95768728 -0.79722285 18.63540721 -0.6875 16.3125 C-0.62423532 14.73638431 -0.56236945 13.16021181 -0.50195312 11.58398438 C-0.35085376 7.72180981 -0.18051077 3.8609072 0 0 Z " fill="#423A33" transform="translate(352,735)"/>
<path d="M0 0 C0.66 0.33 1.32 0.66 2 1 C1.05023017 3.64920076 0.09072092 6.29411973 -0.875 8.9375 C-1.14441406 9.69224609 -1.41382813 10.44699219 -1.69140625 11.22460938 C-3.7734375 16.88671875 -3.7734375 16.88671875 -6 18 C-6.93065133 15.39417629 -7.14917407 14.35801776 -6.0625 11.75 C-5.711875 11.1725 -5.36125 10.595 -5 10 C-4.34 10 -3.68 10 -3 10 C-2.86722656 9.36191406 -2.73445313 8.72382812 -2.59765625 8.06640625 C-2.42105469 7.24011719 -2.24445313 6.41382813 -2.0625 5.5625 C-1.88847656 4.73878906 -1.71445312 3.91507813 -1.53515625 3.06640625 C-1 1 -1 1 0 0 Z " fill="#F2F1EF" transform="translate(437,1030)"/>
<path d="M0 0 C2.64 0 5.28 0 8 0 C8.33 0.66 8.66 1.32 9 2 C8.34 2 7.68 2 7 2 C7 2.99 7 3.98 7 5 C5.02 5 3.04 5 1 5 C0.67 3.35 0.34 1.7 0 0 Z " fill="#3B4146" transform="translate(206,940)"/>
<path d="M0 0 C0.33 0 0.66 0 1 0 C1 2.64 1 5.28 1 8 C2.98 7.67 4.96 7.34 7 7 C6.01 8.485 6.01 8.485 5 10 C1.875 10.1875 1.875 10.1875 -1 10 C-1.02689216 8.52093108 -1.04634621 7.04172517 -1.0625 5.5625 C-1.07410156 4.73878906 -1.08570313 3.91507813 -1.09765625 3.06640625 C-1 1 -1 1 0 0 Z " fill="#1D1C1C" transform="translate(740,1131)"/>
<path d="M0 0 C-0.66 0 -1.32 0 -2 0 C-2 0.66 -2 1.32 -2 2 C-7.38027025 3.19088986 -12.45291384 4.2919519 -18 4 C-15.60397626 1.60397626 -14.34838352 1.51168523 -11.0625 0.9375 C-2.02111324 -0.67370441 -2.02111324 -0.67370441 0 0 Z " fill="#242321" transform="translate(474,666)"/>
<path d="M0 0 C1.98 0 3.96 0 6 0 C6 0.66 6 1.32 6 2 C4.68 2 3.36 2 2 2 C2.350625 3.2375 2.70125 4.475 3.0625 5.75 C3.95593273 8.903292 4.00881294 10.86774164 3 14 C2.49307308 12.4188708 1.99473557 10.83498617 1.5 9.25 C1.2215625 8.36828125 0.943125 7.4865625 0.65625 6.578125 C0 4 0 4 0 0 Z " fill="#6E767A" transform="translate(641,406)"/>
<path d="M0 0 C1.32 0.66 2.64 1.32 4 2 C4 3.98 4 5.96 4 8 C2.68 7.67 1.36 7.34 0 7 C-0.38133299 5.0085944 -0.71325582 3.00720923 -1 1 C-0.67 0.67 -0.34 0.34 0 0 Z " fill="#493D37" transform="translate(265,508)"/>
<path d="M0 0 C1.98 0 3.96 0 6 0 C6.66 1.32 7.32 2.64 8 4 C5.36 3.67 2.72 3.34 0 3 C0 2.01 0 1.02 0 0 Z " fill="#393C3D" transform="translate(645,928)"/>
<path d="M0 0 C0.33 0.66 0.66 1.32 1 2 C-0.65 3.65 -2.3 5.3 -4 7 C-4 6.34 -4 5.68 -4 5 C-5.65 5 -7.3 5 -9 5 C-8.443125 4.731875 -7.88625 4.46375 -7.3125 4.1875 C-4.80287477 2.89877353 -2.40665764 1.47073522 0 0 Z " fill="#F5D6AC" transform="translate(748,1138)"/>
<path d="M0 0 C2.94956528 1.36944102 5.52468811 2.87830409 8 5 C8 5.66 8 6.32 8 7 C8.99 7.33 9.98 7.66 11 8 C10.34 8.66 9.68 9.32 9 10 C5.73991357 6.83047153 2.77762123 3.60062011 0 0 Z " fill="#DFE6E7" transform="translate(775,943)"/>
<path d="M0 0 C1.09898702 3.29696105 0.87124444 4.40494903 0.0625 7.6875 C-0.22947266 8.89986328 -0.22947266 8.89986328 -0.52734375 10.13671875 C-0.68332031 10.75160156 -0.83929688 11.36648438 -1 12 C-1.33 12 -1.66 12 -2 12 C-3.35384615 4.61538462 -3.35384615 4.61538462 -1.5625 1.5 C-1.046875 1.005 -0.53125 0.51 0 0 Z " fill="#F4F8F8" transform="translate(214,471)"/>
<path d="M0 0 C4.43458973 1.3937282 6.87378374 3.60582235 10 7 C9.01 7 8.02 7 7 7 C6.67 6.01 6.34 5.02 6 4 C2.99152582 2.77479736 2.99152582 2.77479736 0 2 C0 1.34 0 0.68 0 0 Z " fill="#E3C49D" transform="translate(762,951)"/>
<path d="M0 0 C5.94 0.99 5.94 0.99 12 2 C12 2.33 12 2.66 12 3 C9.69 3.66 7.38 4.32 5 5 C3.35 3.35 1.7 1.7 0 0 Z " fill="#DDE8ED" transform="translate(668,840)"/>
<path d="M0 0 C2.64 0 5.28 0 8 0 C8 0.99 8 1.98 8 3 C5.36 3 2.72 3 0 3 C0 2.01 0 1.02 0 0 Z " fill="#3C3935" transform="translate(416,269)"/>
<path d="M0 0 C2.31 0 4.62 0 7 0 C7 0.99 7 1.98 7 3 C4.69 3 2.38 3 0 3 C0 2.01 0 1.02 0 0 Z " fill="#403731" transform="translate(434,679)"/>
<path d="M0 0 C0.99 1.485 0.99 1.485 2 3 C2.87072072 4.23220174 3.74584102 5.46130459 4.625 6.6875 C5.07101562 7.31011719 5.51703125 7.93273437 5.9765625 8.57421875 C6.31429687 9.04472656 6.65203125 9.51523437 7 10 C6.01 10 5.02 10 4 10 C1.09677182 6.35022743 0 4.74147821 0 0 Z " fill="#E5C89F" transform="translate(507,563)"/>
<path d="M0 0 C2.31 0.66 4.62 1.32 7 2 C6.01 2.33 5.02 2.66 4 3 C3.34 2.67 2.68 2.34 2 2 C2.33 3.98 2.66 5.96 3 8 C0.4345406 5.4345406 0.45953913 3.52313332 0 0 Z " fill="#476684" transform="translate(570,813)"/>
<path d="M0 0 C0.125 2.875 0.125 2.875 0 6 C-0.66 6.66 -1.32 7.32 -2 8 C-3 7 -3 7 -3.0625 3.9375 C-3.041875 2.968125 -3.02125 1.99875 -3 1 C-1 0 -1 0 0 0 Z " fill="#453A34" transform="translate(286,564)"/>
</svg>
